<?xml version="1.0" encoding="UTF-8"?>
<svg width="40px" height="40px" viewBox="0 0 40 40" version="1.1" xmlns="http://www.w3.org/2000/svg" xmlns:xlink="http://www.w3.org/1999/xlink">
    <!-- Generator: Sketch 50 (54983) - http://www.bohemiancoding.com/sketch -->
    <title>Group 3</title>
    <desc>Created with Sketch.</desc>
    <defs></defs>
    <g id="Page-1" stroke="none" stroke-width="1" fill="none" fill-rule="evenodd">
        <g id="Artboard" transform="translate(-91.000000, -8.000000)">
            <g id="Group-3" transform="translate(91.000000, 8.000000)">
                <path d="M31.2027597,6.67570749 C29.9487877,6.21227939 28.5467228,6.69693129 27.829649,7.84169091 C27.1125753,8.98645054 27.2727812,10.4843425 28.2150749,11.4453438 C29.1573687,12.4063451 30.6290676,12.5727565 31.7557121,11.8456989 C32.8823566,11.1186414 33.3618291,9.69308061 32.9092348,8.41606158 L35.6323285,5.6451935 C35.7414298,5.92721304 35.8125741,6.22294226 35.8438298,6.5243522 L36.7399485,15.2482581 C36.9372467,17.1632845 36.27489,19.0666697 34.9372329,20.4286421 L16.6166859,39.0709554 C15.3942835,40.3117604 13.4148265,40.3093737 12.1953175,39.0656243 L0.918322416,27.5903203 C-0.304058532,26.3494028 -0.306404146,24.3351285 0.913083288,23.0912668 L19.2324913,4.44976483 C20.5709391,3.08858084 22.4415529,2.4146296 24.323557,2.61553801 L32.8970481,3.52737832 C33.2755704,3.56737164 33.6444224,3.67378901 33.9872423,3.84190992 L31.2027597,6.67570749 Z M30.23466,7.89257623 C31.0523856,7.89257623 31.7152831,8.56710376 31.7152831,9.39917563 C31.7152831,10.2312475 31.0523856,10.905775 30.23466,10.905775 C29.4169344,10.905775 28.7540369,10.2312475 28.7540369,9.39917563 C28.7540369,8.56710376 29.4169344,7.89257623 30.23466,7.89257623 Z" id="Base-2" fill="#FF7852"></path>
                <path d="M34.9263039,20.5626702 L16.4972173,39.0779017 C15.3447737,40.2327648 13.5054359,40.3126755 12.2580645,39.2620733 C13.3843486,39.6388654 14.6258533,39.344857 15.466072,38.5023654 L33.8951586,19.9871339 C35.2407741,18.6343869 35.9070715,16.7438946 35.7085995,14.8418398 L34.8565297,6.65195892 L35.625535,5.87935905 C35.7352854,6.1594683 35.806853,6.45319437 35.8382946,6.75256266 L36.7397447,15.4173761 C36.9382167,17.3194308 36.2719194,19.2099232 34.9263039,20.5626702 Z M30.4580077,8.23330233 C31.1348305,8.29961856 31.6810016,8.81807921 31.7852592,9.49321479 C31.8895169,10.1683504 31.5253837,10.8287018 30.9003782,11.0979364 C30.2753727,11.367171 29.5482229,11.1769133 29.1333298,10.6355907 C29.181679,10.6404252 29.2306011,10.6430726 29.2800961,10.6430726 C29.8479788,10.6436095 30.3666226,10.3192754 30.6168698,9.8071206 C30.8671171,9.29496581 30.8053037,8.68435311 30.4575494,8.23330233 L30.4580077,8.23330233 Z M28.3974358,7.68573714 C27.8602536,8.22541016 27.5584661,8.95737596 27.5584661,9.72060312 C27.5584661,10.4838303 27.8602536,11.2157961 28.3974358,11.7554691 C28.4471599,11.8053105 28.4996337,11.8502024 28.551993,11.8956697 C27.5618434,11.5858599 26.8158841,10.7622878 26.6019938,9.74278427 C26.3881034,8.72328071 26.7397307,7.66727879 27.5211768,6.98230786 C28.3026228,6.29733694 29.3916825,6.09051492 30.3680689,6.44165798 L32.9267987,3.87096774 L33.1044994,3.88973022 C33.4852736,3.92945264 33.8563201,4.03514918 34.2011796,4.2021313 L31.3992142,7.01719423 C30.3543054,6.63538461 29.1838586,6.89606138 28.3974358,7.68573714 Z" id="Shadow" fill="#D65430"></path>
                <polygon id="Flag" fill="#FF7852" points="39.43074 0 32.2580645 7.05882353 32.9411765 7.74193548 40 0.569259962"></polygon>
                <path d="M9.88176396,25.7797351 L8.38709677,27.3204002 L12.6852139,31.6129032 L13.6292445,30.6395997 L12.430198,29.441966 L12.9929124,28.8617656 C13.6182019,28.2170206 13.9601786,27.6148384 14.0188426,27.055219 C14.0775066,26.4955997 13.8413935,25.9509201 13.3105033,25.4211803 C12.7796131,24.8910514 12.2378337,24.6509256 11.6851649,24.7008026 C11.1324962,24.7506797 10.5313625,25.1104795 9.88176396,25.7802019 L9.88176396,25.7797351 Z M12.2354564,27.9580254 L11.6003897,28.613275 L10.1554144,27.170302 L10.6939731,26.615079 C11.0045473,26.2948074 11.2857511,26.1109392 11.5375847,26.0634742 C11.7894182,26.0160093 12.0393346,26.1161136 12.2873338,26.3637872 C12.5353331,26.6115386 12.667423,26.8580839 12.6836035,27.1034232 C12.6997841,27.3487624 12.5505167,27.6336687 12.2358015,27.9581422 L12.2354564,27.9580254 Z M19.9730105,21.6712948 C20.001318,22.1625442 19.8233618,22.642995 19.4831906,22.9937231 C19.1430195,23.3444513 18.6724276,23.5326757 18.1878989,23.511806 C17.1436948,23.451584 16.30559,22.6146556 16.2295559,21.5562118 C16.1984041,21.064194 16.3754276,20.5820314 16.7162402,20.2306196 C17.0570528,19.8792079 17.5293346,19.691872 18.0146675,19.7155839 C19.0589122,19.7758126 19.8970315,20.6128054 19.9730105,21.6712948 Z M20.318093,19.3252821 C19.7365927,18.7154651 18.9292762,18.3817132 18.0933463,18.4055517 C16.3576252,18.4731065 14.973619,19.8998916 14.9345764,21.6619575 C14.9560933,23.4191743 16.3693809,24.8304053 18.1012832,24.8240559 C19.8370043,24.756501 21.2210105,23.3297159 21.2600531,21.5676501 C21.2699244,20.719169 20.9278973,19.9055433 20.3175178,19.3255155 L20.318093,19.3252821 Z M22.5775779,14.2002363 C22.9686714,13.7968621 23.4892858,13.5470876 24.1394212,13.4509128 L23.9164979,12.2580645 C23.513243,12.298154 23.120991,12.4147115 22.7601265,12.6016795 C22.3911314,12.7860274 22.0549513,13.031413 21.7653688,13.3277763 C21.333709,13.7729351 21.0844828,14.2547042 21.0176901,14.7730836 C20.9508975,15.2914629 21.1212916,15.7544405 21.5288723,16.1620165 C21.9367598,16.569359 22.3499385,16.7506984 22.7684085,16.7060347 C23.1868785,16.661371 23.7017032,16.4446663 24.3128826,16.0559207 C24.7012921,15.8135383 24.9859084,15.6760845 25.1667317,15.6435593 C25.3358549,15.6075428 25.5113542,15.6622001 25.6314427,15.7882885 C25.7564466,15.9052609 25.816092,16.0775548 25.7906407,16.2481537 C25.7526153,16.4542971 25.6491076,16.6421343 25.4959403,16.7829512 C25.1086044,17.1822013 24.4841202,17.4142349 23.6224876,17.4790517 L23.7605206,18.7592044 C24.8012126,18.7096385 25.6562503,18.3395676 26.3256336,17.6489917 C26.7895011,17.1706853 27.0437885,16.6651448 27.0884959,16.1323704 C27.1397936,15.6177557 26.9506611,15.1084562 26.5774288,14.7561596 C26.1920867,14.3714602 25.7880335,14.1931554 25.3652691,14.2212453 C24.9425047,14.2493352 24.4802093,14.420209 23.9783827,14.7338666 C23.4765561,15.0476021 23.1332757,15.2247397 22.9485416,15.2652794 C22.7825841,15.3112371 22.6050931,15.2630356 22.4839455,15.1391082 C22.3635275,15.0266163 22.3023314,14.8631629 22.3187661,14.6979178 C22.3447201,14.5064957 22.4362173,14.3304406 22.5772328,14.2005864 L22.5775779,14.2002363 Z" id="POS" fill="#D65430"></path>
                <path d="M9.88176396,25.7797351 L8.38709677,27.3204002 L12.6852139,31.6129032 L13.6292445,30.6395997 L12.430198,29.441966 L12.9929124,28.8617656 C13.6182019,28.2170206 13.9601786,27.6148384 14.0188426,27.055219 C14.0775066,26.4955997 13.8413935,25.9509201 13.3105033,25.4211803 C12.7796131,24.8910514 12.2378337,24.6509256 11.6851649,24.7008026 C11.1324962,24.7506797 10.5313625,25.1104795 9.88176396,25.7802019 L9.88176396,25.7797351 Z M12.2354564,27.9580254 L11.6003897,28.613275 L10.1554144,27.170302 L10.6939731,26.615079 C11.0045473,26.2948074 11.2857511,26.1109392 11.5375847,26.0634742 C11.7894182,26.0160093 12.0393346,26.1161136 12.2873338,26.3637872 C12.5353331,26.6115386 12.667423,26.8580839 12.6836035,27.1034232 C12.6997841,27.3487624 12.5505167,27.6336687 12.2358015,27.9581422 L12.2354564,27.9580254 Z M19.9730105,21.6712948 C20.001318,22.1625442 19.8233618,22.642995 19.4831906,22.9937231 C19.1430195,23.3444513 18.6724276,23.5326757 18.1878989,23.511806 C17.1436948,23.451584 16.30559,22.6146556 16.2295559,21.5562118 C16.1984041,21.064194 16.3754276,20.5820314 16.7162402,20.2306196 C17.0570528,19.8792079 17.5293346,19.691872 18.0146675,19.7155839 C19.0589122,19.7758126 19.8970315,20.6128054 19.9730105,21.6712948 Z M20.318093,19.3252821 C19.7365927,18.7154651 18.9292762,18.3817132 18.0933463,18.4055517 C16.3576252,18.4731065 14.973619,19.8998916 14.9345764,21.6619575 C14.9560933,23.4191743 16.3693809,24.8304053 18.1012832,24.8240559 C19.8370043,24.756501 21.2210105,23.3297159 21.2600531,21.5676501 C21.2699244,20.719169 20.9278973,19.9055433 20.3175178,19.3255155 L20.318093,19.3252821 Z M22.5775779,14.2002363 C22.9686714,13.7968621 23.4892858,13.5470876 24.1394212,13.4509128 L23.9164979,12.2580645 C23.513243,12.298154 23.120991,12.4147115 22.7601265,12.6016795 C22.3911314,12.7860274 22.0549513,13.031413 21.7653688,13.3277763 C21.333709,13.7729351 21.0844828,14.2547042 21.0176901,14.7730836 C20.9508975,15.2914629 21.1212916,15.7544405 21.5288723,16.1620165 C21.9367598,16.569359 22.3499385,16.7506984 22.7684085,16.7060347 C23.1868785,16.661371 23.7017032,16.4446663 24.3128826,16.0559207 C24.7012921,15.8135383 24.9859084,15.6760845 25.1667317,15.6435593 C25.3358549,15.6075428 25.5113542,15.6622001 25.6314427,15.7882885 C25.7564466,15.9052609 25.816092,16.0775548 25.7906407,16.2481537 C25.7526153,16.4542971 25.6491076,16.6421343 25.4959403,16.7829512 C25.1086044,17.1822013 24.4841202,17.4142349 23.6224876,17.4790517 L23.7605206,18.7592044 C24.8012126,18.7096385 25.6562503,18.3395676 26.3256336,17.6489917 C26.7895011,17.1706853 27.0437885,16.6651448 27.0884959,16.1323704 C27.1397936,15.6177557 26.9506611,15.1084562 26.5774288,14.7561596 C26.1920867,14.3714602 25.7880335,14.1931554 25.3652691,14.2212453 C24.9425047,14.2493352 24.4802093,14.420209 23.9783827,14.7338666 C23.4765561,15.0476021 23.1332757,15.2247397 22.9485416,15.2652794 C22.7825841,15.3112371 22.6050931,15.2630356 22.4839455,15.1391082 C22.3635275,15.0266163 22.3023314,14.8631629 22.3187661,14.6979178 C22.3447201,14.5064957 22.4362173,14.3304406 22.5772328,14.2005864 L22.5775779,14.2002363 Z" id="POS-2" fill="#FFFFFF"></path>
            </g>
        </g>
    </g>
</svg>