<?xml version="1.0" encoding="UTF-8"?>
<svg width="128px" height="118px" viewBox="0 0 128 118" version="1.1" xmlns="http://www.w3.org/2000/svg" xmlns:xlink="http://www.w3.org/1999/xlink">
    <!-- Generator: Sketch 50 (54983) - http://www.bohemiancoding.com/sketch -->
    <title>sprite</title>
    <desc>Created with Sketch.</desc>
    <defs></defs>
    <g id="sprite" stroke="none" stroke-width="1" fill="none" fill-rule="evenodd">
        <path d="M126.460526,1 C126.886844,1 127.249999,1.15758053 127.55,1.47274633 C127.850001,1.78791213 128,2.13766405 128,2.52201258 L128,21.3165618 C128,21.7777801 127.830265,22.1736531 127.490789,22.5041929 C127.151314,22.8347326 126.744739,23 126.271053,23 L112.581579,23 C111.85526,23 111.243424,22.7578641 110.746053,22.2735849 C110.248682,21.7893058 110,21.1935745 110,20.4863732 L110,3.53668763 C110,2.81411239 110.248682,2.21069425 110.746053,1.72641509 C111.243424,1.24213594 111.85526,1 112.581579,1 L126.460526,1 Z M120.634211,8.17190776 L120.894737,7.82599581 C121.036843,7.61076063 121.206578,7.46086695 121.403947,7.37631027 C121.601317,7.2917536 121.810525,7.24947589 122.031579,7.24947589 C122.157895,7.24947589 122.335525,7.29559702 122.564474,7.38784067 C122.793422,7.48008432 122.994736,7.65688199 123.168421,7.91823899 L123.168421,2.68343816 L120.634211,2.68343816 L120.634211,8.17190776 Z M111.728947,20.5555556 C111.728947,20.7707907 111.807894,20.9629621 111.965789,21.1320755 C112.123685,21.3011888 112.328946,21.3626837 112.581579,21.3165618 L113.031579,21.3165618 L113.031579,2.68343816 L112.581579,2.68343816 C112.328946,2.68343816 112.123685,2.76030671 111.965789,2.91404612 C111.807894,3.06778553 111.728947,3.27533063 111.728947,3.53668763 L111.728947,20.5555556 Z M126.271053,21.408805 L126.271053,2.68343816 L124.897368,2.68343816 L124.897368,8.49475891 C124.897368,8.92522927 124.794738,9.29804175 124.589474,9.61320755 C124.384209,9.92837334 124.107896,10.1474487 123.760526,10.2704403 C123.681579,10.3165621 123.610527,10.3434661 123.547368,10.351153 C123.48421,10.35884 123.413158,10.3626834 123.334211,10.3626834 C123.113157,10.3626834 122.903948,10.3165623 122.706579,10.2243187 C122.50921,10.132075 122.339474,9.9783379 122.197368,9.76310273 L122.126316,9.69392034 L121.936842,9.34800839 L121.510526,9.85534591 C121.289473,10.0705811 121.040791,10.2166313 120.764474,10.293501 C120.488157,10.3703708 120.215791,10.3626839 119.947368,10.2704403 C119.647367,10.1474487 119.398685,9.92837334 119.201316,9.61320755 C119.003946,9.29804175 118.905263,8.92522927 118.905263,8.49475891 L118.905263,2.68343816 L114.760526,2.68343816 L114.760526,21.408805 L126.271053,21.408805 Z" id="" fill="#FFFFFF"></path>
        <path d="M49.390625,1 C49.8281272,1 50.1979152,1.16045388 50.5,1.48136646 C50.8020848,1.80227904 50.9687498,2.19047391 51,2.64596273 L51,14.4006211 C51,14.8250539 50.8411474,15.197721 50.5234375,15.5186335 C50.2057276,15.8395461 49.8281272,16 49.390625,16 L42.140625,16 C41.7135395,16 41.3411474,15.8395461 41.0234375,15.5186335 C40.7057276,15.197721 40.546875,14.8250539 40.546875,14.4006211 L40.546875,12.7080745 C40.546875,12.5320902 40.5989578,12.3923401 40.703125,12.2888199 C40.8072922,12.1852997 40.9427075,12.1335404 41.109375,12.1335404 C41.2864592,12.1335404 41.4270828,12.1852997 41.53125,12.2888199 C41.6354172,12.3923401 41.6875,12.5320902 41.6875,12.7080745 L41.6875,14.4006211 C41.6875,14.5144933 41.7343745,14.6205999 41.828125,14.7189441 C41.9218755,14.8172883 42.0260411,14.8664596 42.140625,14.8664596 L49.390625,14.8664596 C49.5052089,14.8664596 49.6119787,14.8172883 49.7109375,14.7189441 C49.8098963,14.6205999 49.859375,14.5144933 49.859375,14.4006211 L49.859375,2.64596273 C49.859375,2.53209053 49.8098963,2.42857189 49.7109375,2.33540373 C49.6119787,2.24223556 49.5052089,2.19565217 49.390625,2.19565217 L42.140625,2.19565217 C42.0260411,2.19565217 41.9218755,2.24223556 41.828125,2.33540373 C41.7343745,2.42857189 41.6875,2.53209053 41.6875,2.64596273 L41.6875,4.29192547 C41.6875,4.46790978 41.6354172,4.60765994 41.53125,4.71118012 C41.4270828,4.81470031 41.2864592,4.86645963 41.109375,4.86645963 C40.9427075,4.86645963 40.8072922,4.81470031 40.703125,4.71118012 C40.5989578,4.60765994 40.546875,4.46790978 40.546875,4.29192547 L40.546875,2.64596273 C40.546875,2.19047391 40.6979152,1.80227904 41,1.48136646 C41.3020848,1.16045388 41.6822894,1 42.140625,1 L49.390625,1 Z M43.046875,10.8913043 L45.046875,8.95031056 L37.5625,8.95031056 C37.3958325,8.95031056 37.2604172,8.89855124 37.15625,8.79503106 C37.0520828,8.69151087 37,8.55693665 37,8.39130435 C37,8.21532003 37.0520828,8.07556988 37.15625,7.97204969 C37.2604172,7.8685295 37.3958325,7.81677019 37.5625,7.81677019 L45.21875,7.81677019 L43.046875,5.65838509 C42.9427078,5.54451289 42.890625,5.41252663 42.890625,5.26242236 C42.890625,5.11231809 42.9427078,4.98033183 43.046875,4.86645963 C43.1614589,4.75258742 43.2968742,4.69565217 43.453125,4.69565217 C43.6093758,4.69565217 43.7447911,4.75258742 43.859375,4.86645963 L46.546875,7.53726708 C46.6302088,7.62008323 46.6979164,7.7287778 46.75,7.86335404 C46.8020836,7.99793028 46.828125,8.1325045 46.828125,8.26708075 C46.828125,8.41200901 46.8020836,8.55175916 46.75,8.6863354 C46.6979164,8.82091165 46.6302088,8.92960621 46.546875,9.01242236 L43.859375,11.6832298 C43.7968747,11.7349899 43.729167,11.7763974 43.65625,11.8074534 C43.583333,11.8385095 43.5156253,11.8540373 43.453125,11.8540373 C43.4010414,11.8540373 43.3359379,11.8385095 43.2578125,11.8074534 C43.1796871,11.7763974 43.1093753,11.7349899 43.046875,11.6832298 C42.9427078,11.5693576 42.890625,11.4373714 42.890625,11.2872671 C42.890625,11.1371628 42.9427078,11.0051766 43.046875,10.8913043 Z" id="" fill="#FF7852"></path>
        <path d="M57.5621547,8.46659708 C57.7242181,8.46659708 57.8558927,8.51878862 57.9571823,8.62317328 C58.058472,8.72755793 58.109116,8.8684751 58.109116,9.04592902 L58.109116,16.4363257 C58.109116,16.6033411 58.058472,16.7390391 57.9571823,16.8434238 C57.8558927,16.9478085 57.7242181,17 57.5621547,17 C57.3899623,17 57.2532233,16.9478085 57.1519337,16.8434238 C57.0506441,16.7390391 57,16.6033411 57,16.4363257 L57,9.04592902 C57,8.8684751 57.0506441,8.72755793 57.1519337,8.62317328 C57.2532233,8.51878862 57.3899623,8.46659708 57.5621547,8.46659708 Z M62.7279006,2 C62.889964,2 63.0216385,2.05219154 63.1229282,2.1565762 C63.2242178,2.26096086 63.2748619,2.39665887 63.2748619,2.56367432 L63.2748619,16.4363257 C63.2748619,16.6033411 63.2242178,16.7390391 63.1229282,16.8434238 C63.0216385,16.9478085 62.889964,17 62.7279006,17 C62.5557082,17 62.4189692,16.9478085 62.3176796,16.8434238 C62.2163899,16.7390391 62.1657459,16.6033411 62.1657459,16.4363257 L62.1657459,2.56367432 C62.1657459,2.39665887 62.2163899,2.26096086 62.3176796,2.1565762 C62.4189692,2.05219154 62.5557082,2 62.7279006,2 Z M67.4378453,12.5845511 C67.6100377,12.5845511 67.7467767,12.6393523 67.8480663,12.7489562 C67.9493559,12.85856 68,12.9968676 68,13.1638831 L68,16.4363257 C68,16.6033411 67.9493559,16.7390391 67.8480663,16.8434238 C67.7467767,16.9478085 67.6100377,17 67.4378453,17 C67.2757819,17 67.1441073,16.9478085 67.0428177,16.8434238 C66.941528,16.7390391 66.890884,16.6033411 66.890884,16.4363257 L66.890884,13.1638831 C66.890884,12.9968676 66.941528,12.85856 67.0428177,12.7489562 C67.1441073,12.6393523 67.2757819,12.5845511 67.4378453,12.5845511 Z" id="" fill="#FF7852"></path>
        <path d="M13.9230769,20 C14.4871823,20 14.9666647,20.2105242 15.3615385,20.6315789 C15.7564122,21.0526337 15.9692306,21.5526287 16,22.1315789 L16,32.8684211 C16,33.4473713 15.7948738,33.9473663 15.3846154,34.3684211 C14.9743569,34.7894758 14.4871823,35 13.9230769,35 L4.07692308,35 C3.51281769,35 3.02564308,34.7894758 2.61538462,34.3684211 C2.20512615,33.9473663 2,33.4473713 2,32.8684211 L2,22.1315789 C2,21.5526287 2.20512615,21.0526337 2.61538462,20.6315789 C3.02564308,20.2105242 3.51281769,20 4.07692308,20 L13.9230769,20 Z M7.4,21.1526316 L7.4,24.5473684 C7.45128231,24.5789475 7.50512792,24.5947368 7.56153846,24.5947368 C7.617949,24.5947368 7.67692277,24.5789475 7.73846154,24.5473684 L8.56923077,24.0421053 C8.79487292,23.8947361 9.05897285,23.8210526 9.36153846,23.8210526 C9.66410408,23.8210526 9.928204,23.8947361 10.1538462,24.0421053 C10.1846155,24.0421053 10.2102563,24.0499999 10.2307692,24.0657895 L10.2615385,24.0894737 L10.7692308,24.5473684 L10.9153846,24.5473684 C10.9820516,24.5473684 11.0256409,24.5315791 11.0461538,24.5 L11.0461538,21.1526316 L7.4,21.1526316 Z M14.8153846,32.8684211 L14.8769231,32.8684211 L14.8769231,22.1315789 C14.8769231,21.8368406 14.7871804,21.6000009 14.6076923,21.4210526 C14.4282042,21.2421044 14.2000014,21.1526316 13.9230769,21.1526316 L12.1692308,21.1526316 L12.1692308,24.5473684 C12.1692308,24.7578958 12.1153852,24.9473676 12.0076923,25.1157895 C11.8999995,25.2842114 11.7487189,25.4263152 11.5538462,25.5421053 C11.3076911,25.6578953 11.0435912,25.7026317 10.7615385,25.6763158 C10.4794858,25.6499999 10.2358985,25.5631586 10.0307692,25.4157895 L9.53846154,24.9578947 C9.47692277,24.9263156 9.40769269,24.9105263 9.33076923,24.9105263 C9.25384577,24.9105263 9.18974385,24.9263156 9.13846154,24.9578947 L8.29230769,25.4789474 C8.17948662,25.5631583 8.06410315,25.623684 7.94615385,25.6605263 C7.82820454,25.6973686 7.70256477,25.7157895 7.56923077,25.7157895 C7.42564031,25.7157895 7.29487238,25.7000002 7.17692308,25.6684211 C7.05897377,25.6368419 6.94359031,25.5947371 6.83076923,25.5421053 C6.66666585,25.4473679 6.53076977,25.3184219 6.42307692,25.1552632 C6.31538408,24.9921044 6.26153846,24.8105273 6.26153846,24.6105263 L6.26153846,21.1526316 L4.07692308,21.1526316 C3.78974215,21.1526316 3.55897523,21.2421044 3.38461538,21.4210526 C3.21025554,21.6000009 3.12307692,21.8368406 3.12307692,22.1315789 L3.12307692,32.8684211 C3.12307692,33.1631594 3.21025554,33.3999991 3.38461538,33.5789474 C3.55897523,33.7578956 3.78974215,33.8473684 4.07692308,33.8473684 L13.8615385,33.8473684 C14.1487194,33.8473684 14.3794863,33.7578956 14.5538462,33.5789474 C14.728206,33.3999991 14.8153846,33.1631594 14.8153846,32.8684211 Z M9.64615385,30.5631579 C9.78974431,30.5631579 9.91794815,30.6157889 10.0307692,30.7210526 C10.1435903,30.8263163 10.2,30.9631571 10.2,31.1315789 L10.2,32.3 C10.2,32.4684219 10.1487185,32.6052626 10.0461538,32.7105263 C9.94358923,32.81579 9.81025723,32.8684211 9.64615385,32.8684211 C9.471794,32.8684211 9.33333385,32.81579 9.23076923,32.7105263 C9.12820462,32.6052626 9.07692308,32.4684219 9.07692308,32.3 L9.07692308,31.1315789 C9.07692308,30.9631571 9.12820462,30.8263163 9.23076923,30.7210526 C9.33333385,30.6157889 9.471794,30.5631579 9.64615385,30.5631579 Z M11.3384615,30.5631579 C11.4717955,30.5631579 11.5974353,30.6157889 11.7153846,30.7210526 C11.8333339,30.8263163 11.8923077,30.9631571 11.8923077,31.1315789 L11.8923077,32.3 C11.8923077,32.4684219 11.8410262,32.6052626 11.7384615,32.7105263 C11.6358969,32.81579 11.5025649,32.8684211 11.3384615,32.8684211 C11.1641017,32.8684211 11.0256415,32.81579 10.9230769,32.7105263 C10.8205123,32.6052626 10.7692308,32.4684219 10.7692308,32.3 L10.7692308,31.1315789 C10.7692308,30.9631571 10.8205123,30.8263163 10.9230769,30.7210526 C11.0256415,30.6157889 11.1641017,30.5631579 11.3384615,30.5631579 Z M13.0153846,30.5631579 C13.1589751,30.5631579 13.289743,30.6157889 13.4076923,30.7210526 C13.5256416,30.8263163 13.5846154,30.9631571 13.5846154,31.1315789 L13.5846154,32.3 C13.5846154,32.4684219 13.5333338,32.6052626 13.4307692,32.7105263 C13.3282046,32.81579 13.1897445,32.8684211 13.0153846,32.8684211 C12.8512812,32.8684211 12.7179492,32.81579 12.6153846,32.7105263 C12.51282,32.6052626 12.4615385,32.4684219 12.4615385,32.3 L12.4615385,31.1315789 C12.4615385,30.9631571 12.51282,30.8263163 12.6153846,30.7210526 C12.7179492,30.6157889 12.8512812,30.5631579 13.0153846,30.5631579 Z" id="" fill="#FF7852"></path>
        <path d="M33.8221393,21.1778607 C33.9407137,21.2964351 34,21.4338715 34,21.5901741 C34,21.7464767 33.9407137,21.8839132 33.8221393,22.0024876 L22.0024876,33.8221393 C21.9378106,33.8868162 21.8758295,33.9326284 21.8165423,33.9595771 C21.7572551,33.9865258 21.679105,34 21.5820896,34 C21.4958536,34 21.4203983,33.9865258 21.3557214,33.9595771 C21.2910445,33.9326284 21.2317581,33.8868162 21.1778607,33.8221393 C21.0592863,33.7035649 21,33.5661285 21,33.4098259 C21,33.2535233 21.0592863,33.1160868 21.1778607,32.9975124 L32.9975124,21.1778607 C33.1160868,21.0592863 33.2535233,21 33.4098259,21 C33.5661285,21 33.7035649,21.0592863 33.8221393,21.1778607 Z M23.7164179,25.9639303 C23.0696485,25.9639303 22.5225976,25.7429541 22.0752488,25.300995 C21.6278999,24.8590359 21.4042289,24.3092902 21.4042289,23.6517413 C21.4042289,23.0049719 21.6278999,22.4606158 22.0752488,22.0186567 C22.5225976,21.5766976 23.0696485,21.3557214 23.7164179,21.3557214 C24.3631873,21.3557214 24.9102382,21.5766976 25.3575871,22.0186567 C25.8049359,22.4606158 26.028607,23.0049719 26.028607,23.6517413 C26.028607,24.3092902 25.8049359,24.8590359 25.3575871,25.300995 C24.9102382,25.7429541 24.3631873,25.9639303 23.7164179,25.9639303 Z M23.7164179,22.5360697 C23.4253717,22.5360697 23.163973,22.6492526 22.9322139,22.8756219 C22.7004549,23.1019912 22.5845771,23.3606951 22.5845771,23.6517413 C22.5845771,23.953567 22.7004549,24.2176606 22.9322139,24.4440299 C23.163973,24.6703991 23.4253717,24.7835821 23.7164179,24.7835821 C24.0074641,24.7835821 24.266168,24.6703991 24.4925373,24.4440299 C24.7189066,24.2176606 24.8320896,23.953567 24.8320896,23.6517413 C24.8320896,23.3606951 24.7189066,23.1019912 24.4925373,22.8756219 C24.266168,22.6492526 24.0074641,22.5360697 23.7164179,22.5360697 Z M31.2835821,28.971393 C31.9303515,28.971393 32.4774024,29.2004538 32.9247512,29.6585821 C33.3721001,30.1167104 33.5957711,30.6583717 33.5957711,31.2835821 C33.5957711,31.9087925 33.3721001,32.4504538 32.9247512,32.9085821 C32.4774024,33.3667104 31.9303515,33.5957711 31.2835821,33.5957711 C30.6368127,33.5957711 30.0897618,33.3667104 29.6424129,32.9085821 C29.1950641,32.4504538 28.971393,31.9087925 28.971393,31.2835821 C28.971393,30.6583717 29.1950641,30.1167104 29.6424129,29.6585821 C30.0897618,29.2004538 30.6368127,28.971393 31.2835821,28.971393 Z M31.2835821,32.4154229 C31.5746283,32.4154229 31.836027,32.2995451 32.0677861,32.0677861 C32.2995451,31.836027 32.4154229,31.5746283 32.4154229,31.2835821 C32.4154229,30.9925359 32.2995451,30.733832 32.0677861,30.5074627 C31.836027,30.2810934 31.5746283,30.1679104 31.2835821,30.1679104 C30.9925359,30.1679104 30.733832,30.2810934 30.5074627,30.5074627 C30.2810934,30.733832 30.1679104,30.9925359 30.1679104,31.2835821 C30.1679104,31.5746283 30.2810934,31.836027 30.5074627,32.0677861 C30.733832,32.2995451 30.9925359,32.4154229 31.2835821,32.4154229 Z" id="" fill="#FF7852"></path>
        <path d="M47.1485411,26.9057592 C47.700268,27.1151843 48.2148517,27.397904 48.6923077,27.7539267 C49.1591535,28.1204207 49.5623325,28.5445002 49.9018568,29.026178 C50.241381,29.5078558 50.5119353,30.0366463 50.7135279,30.6125654 C50.9045102,31.1884846 51,31.7905728 51,32.4188482 C51,32.5968595 50.9469501,32.7382194 50.8408488,32.8429319 C50.7347475,32.9476445 50.5915128,33 50.4111406,33 C50.2413785,33 50.1034488,32.9476445 49.9973475,32.8429319 C49.8912462,32.7382194 49.8381963,32.5968595 49.8381963,32.4188482 C49.8381963,31.759159 49.7108766,31.1413641 49.4562334,30.565445 C49.2015902,29.9895259 48.8567661,29.4842954 48.4217507,29.0497382 C47.9867352,28.6151811 47.4721515,28.2774881 46.8779841,28.0366492 C46.2944268,27.7853391 45.6684384,27.6596859 45,27.6596859 C44.3315616,27.6596859 43.7055732,27.7853391 43.1220159,28.0366492 C42.5278485,28.2774881 42.0132648,28.6151811 41.5782493,29.0497382 C41.1432339,29.4842954 40.7984098,29.9895259 40.5437666,30.565445 C40.2891234,31.1413641 40.1618037,31.759159 40.1618037,32.4188482 C40.1618037,32.5968595 40.1087538,32.7382194 40.0026525,32.8429319 C39.8965512,32.9476445 39.7586215,33 39.5888594,33 C39.4084872,33 39.2652525,32.9476445 39.1591512,32.8429319 C39.0530499,32.7382194 39,32.5968595 39,32.4188482 C39,31.7905728 39.0954898,31.1884846 39.2864721,30.6125654 C39.4774545,30.0471176 39.7400514,29.5261804 40.0742706,29.0497382 C40.4084897,28.573296 40.8143212,28.1518343 41.2917772,27.7853403 C41.758623,27.4188463 42.2785117,27.1256555 42.8514589,26.9057592 C42.4694941,26.5916215 42.1697624,26.2120441 41.9522546,25.7670157 C41.7347469,25.3219873 41.6259947,24.8429345 41.6259947,24.3298429 C41.6259947,23.8691076 41.7161795,23.434557 41.8965517,23.026178 C42.0663138,22.6282703 42.3050382,22.2774884 42.6127321,21.973822 C42.9204259,21.6701555 43.2758601,21.4293203 43.6790451,21.2513089 C44.0928403,21.0837688 44.5331542,21 45,21 C45.4668458,21 45.9071597,21.0837688 46.3209549,21.2513089 C46.7241399,21.4293203 47.0795741,21.6701555 47.3872679,21.973822 C47.6949618,22.2774884 47.9336862,22.6282703 48.1034483,23.026178 C48.2838205,23.434557 48.3740053,23.8691076 48.3740053,24.3298429 C48.3740053,24.8429345 48.2652531,25.3219873 48.0477454,25.7670157 C47.8302376,26.2120441 47.5305059,26.5916215 47.1485411,26.9057592 Z M42.7877984,24.3298429 C42.7877984,24.9267046 43.0026504,25.4397884 43.4323607,25.8691099 C43.8620711,26.2984315 44.3846123,26.513089 45,26.513089 C45.6153877,26.513089 46.1379289,26.2984315 46.5676393,25.8691099 C46.9973496,25.4397884 47.2122016,24.9267046 47.2122016,24.3298429 C47.2122016,23.7225101 46.9973496,23.2068084 46.5676393,22.7827225 C46.1379289,22.3586366 45.6153877,22.1465969 45,22.1465969 C44.3846123,22.1465969 43.8620711,22.3586366 43.4323607,22.7827225 C43.0026504,23.2068084 42.7877984,23.7225101 42.7877984,24.3298429 Z M47.9761273,29.3246073 C48.114059,29.3246073 48.2466837,29.3769628 48.3740053,29.4816754 C48.5013269,29.586388 48.5809017,29.7277478 48.6127321,29.9057592 L48.6127321,31.5078534 C48.6127321,31.654451 48.5729447,31.7931931 48.4933687,31.9240838 C48.4137927,32.0549745 48.3156505,32.1623032 48.198939,32.2460733 C48.198939,32.2774871 48.188329,32.2958115 48.1671088,32.3010471 L48.1352785,32.3089005 L47.4986737,32.591623 C47.4456231,32.6230368 47.3766582,32.6518323 47.2917772,32.6780105 C47.2068961,32.7041886 47.1220163,32.7172775 47.0371353,32.7172775 C46.9522542,32.7172775 46.8647219,32.7120419 46.7745358,32.7015707 C46.6843497,32.6910994 46.5968174,32.6544506 46.5119363,32.591623 L45.8753316,32.2460733 L45.8116711,32.1989529 C45.6631292,32.1151828 45.559682,32.0052363 45.5013263,31.8691099 C45.4429705,31.7329836 45.4137931,31.5916238 45.4137931,31.4450262 L45.4137931,29.9057592 C45.4137931,29.7277478 45.466843,29.586388 45.5729443,29.4816754 C45.6790456,29.3769628 45.8169753,29.3246073 45.9867374,29.3246073 L47.9761273,29.3246073 Z M47.3872679,31.3350785 L47.3872679,30.408377 L46.5755968,30.408377 L46.5755968,31.2722513 L46.9734748,31.5078534 L47.3872679,31.3350785 Z" id="" fill="#FF7852"></path>
        <path d="M68.1357447,22 C68.6458668,22 69.0820147,22.1726709 69.4442014,22.518018 C69.8063881,22.8633651 69.9874788,23.2962937 69.9874788,23.8168168 L69.9874788,30.1831832 C70.0180861,30.3733743 69.9925804,30.58108 69.9109608,30.8063063 C69.8293413,31.0315327 69.7069138,31.2292284 69.5436747,31.3993994 C69.3498283,31.5895905 69.1304791,31.7372367 68.8856205,31.8423423 C68.6407618,31.947448 68.3908058,32 68.1357447,32 L57.8517341,32 C57.3110046,32 56.867205,31.8273291 56.520322,31.481982 C56.1734389,31.1366349 56,30.7037063 56,30.1831832 L56,23.8168168 C56,23.2962937 56.1734389,22.8633651 56.520322,22.518018 C56.867205,22.1726709 57.3110046,22 57.8517341,22 L68.1357447,22 Z M57.8517341,23.0960961 C57.6272803,23.0960961 57.4487403,23.1611605 57.3161085,23.2912913 C57.1834768,23.4214221 57.1171619,23.5965955 57.1171619,23.8168168 L57.1171619,24.7477477 L68.8703169,24.7477477 L68.8703169,23.8168168 C68.8703169,23.5965955 68.804002,23.4214221 68.6713702,23.2912913 C68.5387385,23.1611605 68.3601984,23.0960961 68.1357447,23.0960961 L57.8517341,23.0960961 Z M68.7019774,30.6786787 C68.7631921,30.5985982 68.8065518,30.5185189 68.8320579,30.4384384 C68.857564,30.358358 68.8703169,30.2932935 68.8703169,30.2432432 L68.8703169,25.8438438 L57.1171619,25.8438438 L57.1171619,30.1831832 C57.1171619,30.4034045 57.1834768,30.5785779 57.3161085,30.7087087 C57.4487403,30.8388395 57.6272803,30.9039039 57.8517341,30.9039039 L68.1357447,30.9039039 C68.2479716,30.9039039 68.3499945,30.8863866 68.4418164,30.8513514 C68.5336384,30.8163161 68.6203579,30.7587592 68.7019774,30.6786787 Z M64.5547053,29.0870871 C64.6975395,29.0870871 64.8276187,29.1371366 64.9449468,29.2372372 C65.0622748,29.3373378 65.120938,29.4724716 65.120938,29.6426426 L65.120938,29.8078078 C65.120938,29.9679688 65.0699266,30.0980976 64.9679021,30.1981982 C64.8658777,30.2982988 64.7281468,30.3483483 64.5547053,30.3483483 C64.3914662,30.3483483 64.2588364,30.2982988 64.156812,30.1981982 C64.0547876,30.0980976 64.0037761,29.9679688 64.0037761,29.8078078 L64.0037761,29.6426426 C64.0037761,29.4724716 64.0547876,29.3373378 64.156812,29.2372372 C64.2588364,29.1371366 64.3914662,29.0870871 64.5547053,29.0870871 Z M66.2380999,29.0870871 C66.3809341,29.0870871 66.5110133,29.1371366 66.6283413,29.2372372 C66.7456694,29.3373378 66.8043326,29.4724716 66.8043326,29.6426426 L66.8043326,29.8078078 C66.8043326,29.9679688 66.7533212,30.0980976 66.6512967,30.1981982 C66.5492723,30.2982988 66.4115414,30.3483483 66.2380999,30.3483483 C66.0748608,30.3483483 65.942231,30.2982988 65.8402066,30.1981982 C65.7381822,30.0980976 65.6871707,29.9679688 65.6871707,29.8078078 L65.6871707,29.6426426 C65.6871707,29.4724716 65.7381822,29.3373378 65.8402066,29.2372372 C65.942231,29.1371366 66.0748608,29.0870871 66.2380999,29.0870871 Z M67.9214945,29.0870871 C68.0643287,29.0870871 68.1918573,29.1371366 68.3040842,29.2372372 C68.416311,29.3373378 68.4724236,29.4724716 68.4724236,29.6426426 L68.4724236,29.8078078 C68.4724236,29.9679688 68.4214122,30.0980976 68.3193877,30.1981982 C68.2173633,30.2982988 68.0847336,30.3483483 67.9214945,30.3483483 C67.7480529,30.3483483 67.610322,30.2982988 67.5082976,30.1981982 C67.4062732,30.0980976 67.3552617,29.9679688 67.3552617,29.8078078 L67.3552617,29.6426426 C67.3552617,29.4724716 67.4062732,29.3373378 67.5082976,29.2372372 C67.610322,29.1371366 67.7480529,29.0870871 67.9214945,29.0870871 Z" id="" fill="#FF7852"></path>
        <path d="M87.0834213,23.5885057 C87.6008474,23.5885057 88.0496285,23.7923351 88.4297782,24.2 C88.809928,24.6076649 89,25.0904187 89,25.6482759 L89,29.1724138 C89,29.7088149 88.8020083,30.1781589 88.406019,30.5804598 C88.0100297,30.9827606 87.5480491,31.183908 87.0200634,31.183908 L85.8162619,31.183908 L85.8162619,32.2942529 C85.8162619,32.7662859 85.6499489,33.1685807 85.3173178,33.5011494 C84.9846868,33.8337181 84.5702242,34 84.0739176,34 L78.3400211,34 C77.8753937,34 77.4794103,33.8337181 77.1520591,33.5011494 C76.824708,33.1685807 76.6610348,32.7662859 76.6610348,32.2942529 L76.6610348,31.183908 L75.9640971,31.183908 C75.4466711,31.183908 74.9899703,30.9827606 74.593981,30.5804598 C74.1979917,30.1781589 74,29.7088149 74,29.1724138 L74,25.6482759 C74,25.1226027 74.1979917,24.6586227 74.593981,24.2563218 C74.9899703,23.854021 75.4466711,23.6528736 75.9640971,23.6528736 L76.7085533,23.6528736 L76.7085533,22.2850575 C76.7085533,21.6735602 76.9250242,21.139849 77.3579725,20.683908 C77.7909209,20.2279671 78.3083391,20 78.9102429,20 L83.5512144,20 C84.1847973,20 84.7286144,20.230649 85.1826822,20.691954 C85.6367499,21.153259 85.8637804,21.7057439 85.8637804,22.3494253 L85.8637804,23.5885057 L87.0834213,23.5885057 Z M77.8806758,22.2850575 L77.8806758,23.6528736 L84.7074974,23.6528736 L84.7074974,22.4137931 C84.7074974,22.1134085 84.5860625,21.8425299 84.343189,21.6011494 C84.1003156,21.3597689 83.8363267,21.2390805 83.5512144,21.2390805 L78.9102429,21.2390805 C78.6568097,21.2390805 78.4218596,21.349041 78.2053854,21.5689655 C77.9889113,21.78889 77.8806758,22.0275849 77.8806758,22.2850575 Z M84.6441394,32.2298851 L84.7074974,32.2298851 L84.7074974,29.0597701 L77.8806758,29.0597701 L77.8806758,32.2298851 C77.8806758,32.3478933 77.922914,32.4658998 78.0073918,32.583908 C78.0918695,32.7019163 78.2238639,32.7609195 78.4033791,32.7609195 L84.0739176,32.7609195 C84.2217536,32.7609195 84.3537481,32.7180081 84.469905,32.6321839 C84.5860618,32.5463597 84.6441394,32.4122614 84.6441394,32.2298851 Z M87.843717,29.1241379 L87.843717,25.583908 C87.843717,25.3800756 87.7592405,25.192338 87.5902851,25.0206897 C87.4213297,24.8490413 87.2312577,24.7632184 87.0200634,24.7632184 L75.9640971,24.7632184 C75.7634626,24.7632184 75.5786703,24.8490413 75.4097149,25.0206897 C75.2407595,25.192338 75.156283,25.3800756 75.156283,25.583908 L75.156283,29.1241379 C75.156283,29.3279704 75.2407595,29.515708 75.4097149,29.6873563 C75.5786703,29.8590047 75.7634626,29.9448276 75.9640971,29.9448276 L76.7085533,29.9448276 L76.7085533,28.7701149 C76.7085533,28.5019144 76.7903899,28.2873571 76.9540655,28.1264368 C77.1177411,27.9655164 77.3262923,27.8850575 77.5797254,27.8850575 L84.9450898,27.8850575 C85.1985229,27.8850575 85.4070742,27.9655164 85.5707497,28.1264368 C85.7344253,28.2873571 85.8162619,28.5019144 85.8162619,28.7701149 L85.8162619,29.9448276 L87.0200634,29.9448276 C87.2312577,29.9448276 87.4213297,29.8590047 87.5902851,29.6873563 C87.7592405,29.515708 87.843717,29.3279704 87.843717,29.1241379 Z M86.2122492,25.583908 C86.3600852,25.583908 86.4947196,25.6375474 86.6161563,25.7448276 C86.737593,25.8521078 86.7983105,25.996934 86.7983105,26.1793103 C86.7983105,26.3509587 86.7455127,26.4904209 86.6399155,26.5977011 C86.5343184,26.7049814 86.3917644,26.7586207 86.2122492,26.7586207 L85.8637804,26.7586207 C85.6948249,26.7586207 85.5575507,26.7049814 85.4519535,26.5977011 C85.3463564,26.4904209 85.2935586,26.3509587 85.2935586,26.1793103 C85.2935586,25.996934 85.3463564,25.8521078 85.4519535,25.7448276 C85.5575507,25.6375474 85.6948249,25.583908 85.8637804,25.583908 L86.2122492,25.583908 Z" id="" fill="#FF7852"></path>
        <g id="Group" transform="translate(72.000000, 0.000000)">
            <path d="M15.03125,5.59375 C15.1875008,5.80208437 15.2864581,6.06770672 15.328125,6.390625 C15.3697919,6.71354328 15.3697919,7.06510227 15.328125,7.4453125 C15.2864581,7.82552273 15.2083339,8.21874797 15.09375,8.625 C14.9791661,9.03125203 14.8437508,9.41145656 14.6875,9.765625 C14.3124981,10.5677123 13.8723984,11.1796854 13.3671875,11.6015625 C12.8619766,12.0234396 12.312503,12.234375 11.71875,12.234375 L6.625,12.234375 C6.08333063,12.234375 5.61458531,12.06771 5.21875,11.734375 C4.82291469,11.40104 4.56770891,10.9739609 4.453125,10.453125 L2.859375,3.25 C2.82812484,3.05208234 2.72656336,2.88020906 2.5546875,2.734375 C2.38281164,2.58854094 2.19791766,2.515625 2,2.515625 L1.203125,2.515625 C1.02604078,2.515625 0.885417187,2.46354219 0.78125,2.359375 C0.677082812,2.25520781 0.625,2.11458422 0.625,1.9375 C0.625,1.7708325 0.677082812,1.63541719 0.78125,1.53125 C0.885417187,1.42708281 1.02604078,1.375 1.203125,1.375 L2,1.375 C2.48958578,1.375 2.92447727,1.53645672 3.3046875,1.859375 C3.68489773,2.18229328 3.91666625,2.57291437 4,3.03125 L5.65625,10.234375 C5.71875031,10.4843763 5.84114492,10.6874992 6.0234375,10.84375 C6.20573008,11.0000008 6.42708203,11.078125 6.6875,11.078125 L11.765625,11.078125 C12.2031272,11.078125 12.5729152,10.9036476 12.875,10.5546875 C13.1770848,10.2057274 13.4010409,9.88541813 13.546875,9.59375 C13.9114602,8.88541312 14.1276038,8.20312828 14.1953125,7.546875 C14.2630212,6.89062172 14.2552088,6.48958406 14.171875,6.34375 C14.1406248,6.34375 14.1223959,6.33333344 14.1171875,6.3125 L14.109375,6.28125 C14.0572914,6.16666609 13.9661465,6.07291703 13.8359375,6 C13.7057285,5.92708297 13.5677091,5.890625 13.421875,5.890625 L5.890625,5.890625 C5.71354078,5.890625 5.57291719,5.83854219 5.46875,5.734375 C5.36458281,5.63020781 5.3125,5.48958422 5.3125,5.3125 C5.3125,5.1458325 5.36458281,5.01041719 5.46875,4.90625 C5.57291719,4.80208281 5.71354078,4.75 5.890625,4.75 L13.421875,4.75 C13.7447933,4.75 14.0494777,4.82812422 14.3359375,4.984375 C14.6223973,5.14062578 14.8541658,5.34374875 15.03125,5.59375 Z M11.484375,12.578125 C11.7760431,12.578125 12.0208323,12.6770823 12.21875,12.875 C12.4166677,13.0729177 12.515625,13.3124986 12.515625,13.59375 C12.515625,13.8854181 12.4166677,14.1302073 12.21875,14.328125 C12.0208323,14.5260427 11.7760431,14.625 11.484375,14.625 C11.2031236,14.625 10.9609385,14.5260427 10.7578125,14.328125 C10.5546865,14.1302073 10.453125,13.8854181 10.453125,13.59375 C10.453125,13.3124986 10.5546865,13.0729177 10.7578125,12.875 C10.9609385,12.6770823 11.2031236,12.578125 11.484375,12.578125 Z M6.921875,12.578125 C7.20312641,12.578125 7.44270734,12.6770823 7.640625,12.875 C7.83854266,13.0729177 7.9375,13.3124986 7.9375,13.59375 C7.9375,13.8854181 7.83854266,14.1302073 7.640625,14.328125 C7.44270734,14.5260427 7.20312641,14.625 6.921875,14.625 C6.63020687,14.625 6.38541766,14.5260427 6.1875,14.328125 C5.98958234,14.1302073 5.890625,13.8854181 5.890625,13.59375 C5.890625,13.3124986 5.98958234,13.0729177 6.1875,12.875 C6.38541766,12.6770823 6.63020687,12.578125 6.921875,12.578125 Z" id="" fill="#FF7852"></path>
            <path d="M8,7 L8,10" id="Path-5" stroke="#FF7852"></path>
            <path d="M11,7 L11,10" id="Path-5-Copy" stroke="#FF7852"></path>
        </g>
        <path d="M11.470339,48.1174636 C11.6186448,48.1174636 11.753707,48.1694381 11.8755297,48.2733888 C11.9973523,48.3773394 12.0582627,48.5176706 12.0582627,48.6943867 L12.0582627,50.3939709 C12.0582627,50.8201685 11.8967177,51.1943851 11.5736229,51.516632 C11.250528,51.838879 10.8718242,52 10.4375,52 L3.63665254,52 C3.19173506,52 2.80773467,51.838879 2.48463983,51.516632 C2.16154499,51.1943851 2,50.8201685 2,50.3939709 L2,38.5904366 C2,38.164239 2.16154499,37.7926211 2.48463983,37.4755717 C2.80773467,37.1585223 3.19173506,37 3.63665254,37 L10.4375,37 C10.8718242,37 11.250528,37.1585223 11.5736229,37.4755717 C11.8967177,37.7926211 12.0582627,38.164239 12.0582627,38.5904366 L12.0582627,40.2432432 C12.0582627,40.4199593 12.0052971,40.5602905 11.8993644,40.6642412 C11.7934317,40.7681918 11.6504246,40.8201663 11.470339,40.8201663 C11.3008466,40.8201663 11.1631361,40.7681918 11.0572034,40.6642412 C10.9512707,40.5602905 10.8983051,40.4199593 10.8983051,40.2432432 L10.8983051,38.5904366 C10.8983051,38.4760909 10.8479878,38.3721418 10.7473517,38.2785863 C10.6467156,38.1850307 10.5434327,38.1382536 10.4375,38.1382536 L3.63665254,38.1382536 C3.52012654,38.1382536 3.41154711,38.1850307 3.31091102,38.2785863 C3.21027492,38.3721418 3.15995763,38.4760909 3.15995763,38.5904366 L3.15995763,50.3939709 C3.15995763,50.5083166 3.21027492,50.6148644 3.31091102,50.7136175 C3.41154711,50.8123706 3.52012654,50.8617464 3.63665254,50.8617464 L10.4375,50.8617464 C10.5434327,50.8617464 10.6467156,50.8123706 10.7473517,50.7136175 C10.8479878,50.6148644 10.8983051,50.5083166 10.8983051,50.3939709 L10.8983051,48.6943867 C10.8983051,48.5176706 10.9512707,48.3773394 11.0572034,48.2733888 C11.1631361,48.1694381 11.3008466,48.1174636 11.470339,48.1174636 Z M16.6980932,43.502079 C16.7934327,43.6164247 16.8675845,43.7333674 16.9205508,43.8529106 C16.9735172,43.9724538 17,44.0997914 17,44.2349272 C17,44.3804581 16.9735172,44.5207893 16.9205508,44.6559252 C16.8675845,44.791061 16.7934327,44.9002075 16.6980932,44.983368 L13.9809322,47.6652807 C13.9173726,47.717256 13.845869,47.7588356 13.7664195,47.7900208 C13.6869699,47.821206 13.620763,47.8367983 13.5677966,47.8367983 C13.5148302,47.8367983 13.4486233,47.821206 13.3691737,47.7900208 C13.2897242,47.7588356 13.2182207,47.717256 13.154661,47.6652807 C13.038135,47.550935 12.9798729,47.4183999 12.9798729,47.2676715 C12.9798729,47.1169431 13.038135,46.9844081 13.154661,46.8700624 L15.1408898,44.9209979 L7.52966102,44.9209979 C7.34957537,44.9209979 7.20656833,44.8690234 7.10063559,44.7650728 C6.99470286,44.6611221 6.94173729,44.5259884 6.94173729,44.3596674 C6.94173729,44.1829513 6.99470286,44.0426201 7.10063559,43.9386694 C7.20656833,43.8347188 7.34957537,43.7827443 7.52966102,43.7827443 L15.3633475,43.7827443 L13.154661,41.6153846 C13.038135,41.5010389 12.9798729,41.3685039 12.9798729,41.2177755 C12.9798729,41.0670471 13.038135,40.934512 13.154661,40.8201663 C13.271187,40.7058206 13.4088975,40.6486486 13.5677966,40.6486486 C13.7266957,40.6486486 13.8644062,40.7058206 13.9809322,40.8201663 L16.6980932,43.502079 Z" id="" fill="#FF7852"></path>
        <path d="M27.5,38 C28.5334081,38 29.5041708,38.1983279 30.4123173,38.5949896 C31.3204638,38.9916513 32.1137753,39.5292242 32.7922756,40.2077244 C33.4707758,40.8862247 34.0083487,41.6795362 34.4050104,42.5876827 C34.8016721,43.4958292 35,44.4665919 35,45.5 C35,46.5334081 34.8016721,47.5041708 34.4050104,48.4123173 C34.0083487,49.3204638 33.4707758,50.1137753 32.7922756,50.7922756 C32.1137753,51.4707758 31.3204638,52.0083487 30.4123173,52.4050104 C29.5041708,52.8016721 28.5334081,53 27.5,53 C26.4665919,53 25.4958292,52.8016721 24.5876827,52.4050104 C23.6795362,52.0083487 22.8862247,51.4707758 22.2077244,50.7922756 C21.5292242,50.1137753 20.9916513,49.3204638 20.5949896,48.4123173 C20.1983279,47.5041708 20,46.5334081 20,45.5 C20,44.4665919 20.1983279,43.4958292 20.5949896,42.5876827 C20.9916513,41.6795362 21.5292242,40.8862247 22.2077244,40.2077244 C22.8862247,39.5292242 23.6795362,38.9916513 24.5876827,38.5949896 C25.4958292,38.1983279 26.4665919,38 27.5,38 Z M27.5,51.8569937 C28.3768311,51.8569937 29.2014575,51.6899808 29.973904,51.3559499 C30.735912,51.021919 31.4065733,50.565243 31.9859081,49.9859081 C32.565243,49.4065733 33.021919,48.735912 33.3559499,47.973904 C33.6899808,47.2014575 33.8569937,46.3768311 33.8569937,45.5 C33.8569937,44.6231689 33.6899808,43.7985425 33.3559499,43.026096 C33.021919,42.264088 32.565243,41.5934267 31.9859081,41.0140919 C31.4065733,40.434757 30.735912,39.978081 29.973904,39.6440501 C29.2014575,39.3100192 28.3768311,39.1430063 27.5,39.1430063 C26.6231689,39.1430063 25.7985425,39.3100192 25.026096,39.6440501 C24.264088,39.978081 23.5934267,40.434757 23.0140919,41.0140919 C22.434757,41.5934267 21.978081,42.264088 21.6440501,43.026096 C21.3100192,43.7985425 21.1430063,44.6231689 21.1430063,45.5 C21.1430063,46.3768311 21.3100192,47.2014575 21.6440501,47.973904 C21.978081,48.735912 22.434757,49.4065733 23.0140919,49.9859081 C23.5934267,50.565243 24.264088,51.021919 25.026096,51.3559499 C25.7985425,51.6899808 26.6231689,51.8569937 27.5,51.8569937 Z M27.5626305,44.7484342 C28.1054307,44.8945728 28.6612706,45.1242156 29.230167,45.4373695 C29.7990634,45.7505235 30.0991648,46.3037539 30.1304802,47.0970772 C30.1304802,47.6190005 29.9164948,48.0756765 29.4885177,48.467119 C29.0605407,48.8585615 28.5334061,49.1116904 27.9070981,49.2265136 L27.9070981,49.8528184 C27.9070981,50.0198338 27.852297,50.1581414 27.7426931,50.2677453 C27.6330892,50.3773492 27.4947816,50.4321503 27.3277662,50.4321503 C27.1607507,50.4321503 27.0224431,50.3773492 26.9128392,50.2677453 C26.8032354,50.1581414 26.7484342,50.0198338 26.7484342,49.8528184 L26.7484342,49.2265136 C26.0073032,49.1325674 25.4123196,48.882048 24.9634656,48.4749478 C24.5146115,48.0678477 24.2901879,47.5354939 24.2901879,46.8778706 C24.2901879,46.7004166 24.3423794,46.5594995 24.4467641,46.4551148 C24.5511487,46.3507302 24.6920659,46.2985386 24.8695198,46.2985386 C25.0365353,46.2985386 25.1722333,46.3507302 25.276618,46.4551148 C25.3810026,46.5594995 25.4331942,46.7004166 25.4331942,46.8778706 C25.4331942,47.4519862 25.6784944,47.8042791 26.1691023,47.9347599 C26.6597102,48.0652407 27.0459276,48.1304802 27.3277662,48.1304802 C27.7870587,48.1304802 28.1784953,48.0156588 28.5020877,47.7860125 C28.8256801,47.5563663 28.9874739,47.3267235 28.9874739,47.0970772 C28.9874739,46.7526079 28.8543855,46.4994789 28.5882046,46.3376827 C28.3220237,46.1758865 27.9018818,46.0114831 27.3277662,45.8444676 C26.8162814,45.6983291 26.2865372,45.4843438 25.7385177,45.2025052 C25.1904983,44.9206666 24.9164927,44.4091895 24.9164927,43.6680585 C24.9164927,43.1565736 25.0808961,42.7259934 25.4097077,42.3763048 C25.7385194,42.0266162 26.1847571,41.8100213 26.7484342,41.7265136 L26.7484342,40.9123173 C26.7484342,40.7453019 26.8032354,40.6096039 26.9128392,40.5052192 C27.0224431,40.4008346 27.1607507,40.348643 27.3277662,40.348643 C27.4947816,40.348643 27.6330892,40.4008346 27.7426931,40.5052192 C27.852297,40.6096039 27.9070981,40.7453019 27.9070981,40.9123173 L27.9070981,41.7265136 C28.3559521,41.8100213 28.7004163,41.9718151 28.940501,42.2118998 C29.1805858,42.4519845 29.3319412,42.671189 29.394572,42.8695198 C29.4467644,43.0052199 29.436326,43.1487466 29.3632568,43.3001044 C29.2901875,43.4514621 29.1858044,43.5532356 29.0501044,43.605428 C28.9039659,43.6680588 28.7578295,43.6628396 28.611691,43.5897704 C28.4655525,43.5167011 28.3611694,43.4070989 28.2985386,43.2609603 C28.2672232,43.2400834 28.1915455,43.1591865 28.0715031,43.0182672 C27.9514608,42.8773479 27.7035509,42.8068894 27.3277662,42.8068894 C27.0459276,42.8068894 26.7562645,42.8643001 26.4587683,42.9791232 C26.161272,43.0939463 26.0125261,43.3235891 26.0125261,43.6680585 C26.0125261,43.949897 26.1351762,44.1664919 26.3804802,44.3178497 C26.6257841,44.4692074 27.0198303,44.6127342 27.5626305,44.7484342 Z" id="" fill="#FF7852"></path>
        <path d="M49.9230769,38 C50.4871823,38 50.9666647,38.2105242 51.3615385,38.6315789 C51.7564122,39.0526337 51.9692306,39.5526287 52,40.1315789 L52,50.8684211 C52,51.4473713 51.7948738,51.9473663 51.3846154,52.3684211 C50.9743569,52.7894758 50.4871823,53 49.9230769,53 L40.0769231,53 C39.5128177,53 39.0256431,52.7894758 38.6153846,52.3684211 C38.2051262,51.9473663 38,51.4473713 38,50.8684211 L38,40.1315789 C38,39.5526287 38.2051262,39.0526337 38.6153846,38.6315789 C39.0256431,38.2105242 39.5128177,38 40.0769231,38 L49.9230769,38 Z M43.4,39.1526316 L43.4,42.5473684 C43.4512823,42.5789475 43.5051279,42.5947368 43.5615385,42.5947368 C43.617949,42.5947368 43.6769228,42.5789475 43.7384615,42.5473684 L44.5692308,42.0421053 C44.7948729,41.8947361 45.0589728,41.8210526 45.3615385,41.8210526 C45.6641041,41.8210526 45.928204,41.8947361 46.1538462,42.0421053 C46.1846155,42.0421053 46.2102563,42.0499999 46.2307692,42.0657895 L46.2615385,42.0894737 L46.7692308,42.5473684 L46.9153846,42.5473684 C46.9820516,42.5473684 47.0256409,42.5315791 47.0461538,42.5 L47.0461538,39.1526316 L43.4,39.1526316 Z M50.8153846,50.8684211 L50.8769231,50.8684211 L50.8769231,40.1315789 C50.8769231,39.8368406 50.7871804,39.6000009 50.6076923,39.4210526 C50.4282042,39.2421044 50.2000014,39.1526316 49.9230769,39.1526316 L48.1692308,39.1526316 L48.1692308,42.5473684 C48.1692308,42.7578958 48.1153852,42.9473676 48.0076923,43.1157895 C47.8999995,43.2842114 47.7487189,43.4263152 47.5538462,43.5421053 C47.3076911,43.6578953 47.0435912,43.7026317 46.7615385,43.6763158 C46.4794858,43.6499999 46.2358985,43.5631586 46.0307692,43.4157895 L45.5384615,42.9578947 C45.4769228,42.9263156 45.4076927,42.9105263 45.3307692,42.9105263 C45.2538458,42.9105263 45.1897438,42.9263156 45.1384615,42.9578947 L44.2923077,43.4789474 C44.1794866,43.5631583 44.0641032,43.623684 43.9461538,43.6605263 C43.8282045,43.6973686 43.7025648,43.7157895 43.5692308,43.7157895 C43.4256403,43.7157895 43.2948724,43.7000002 43.1769231,43.6684211 C43.0589738,43.6368419 42.9435903,43.5947371 42.8307692,43.5421053 C42.6666658,43.4473679 42.5307698,43.3184219 42.4230769,43.1552632 C42.3153841,42.9921044 42.2615385,42.8105273 42.2615385,42.6105263 L42.2615385,39.1526316 L40.0769231,39.1526316 C39.7897422,39.1526316 39.5589752,39.2421044 39.3846154,39.4210526 C39.2102555,39.6000009 39.1230769,39.8368406 39.1230769,40.1315789 L39.1230769,50.8684211 C39.1230769,51.1631594 39.2102555,51.3999991 39.3846154,51.5789474 C39.5589752,51.7578956 39.7897422,51.8473684 40.0769231,51.8473684 L49.8615385,51.8473684 C50.1487194,51.8473684 50.3794863,51.7578956 50.5538462,51.5789474 C50.728206,51.3999991 50.8153846,51.1631594 50.8153846,50.8684211 Z M45.6461538,48.5631579 C45.7897443,48.5631579 45.9179482,48.6157889 46.0307692,48.7210526 C46.1435903,48.8263163 46.2,48.9631571 46.2,49.1315789 L46.2,50.3 C46.2,50.4684219 46.1487185,50.6052626 46.0461538,50.7105263 C45.9435892,50.81579 45.8102572,50.8684211 45.6461538,50.8684211 C45.471794,50.8684211 45.3333338,50.81579 45.2307692,50.7105263 C45.1282046,50.6052626 45.0769231,50.4684219 45.0769231,50.3 L45.0769231,49.1315789 C45.0769231,48.9631571 45.1282046,48.8263163 45.2307692,48.7210526 C45.3333338,48.6157889 45.471794,48.5631579 45.6461538,48.5631579 Z M47.3384615,48.5631579 C47.4717955,48.5631579 47.5974353,48.6157889 47.7153846,48.7210526 C47.8333339,48.8263163 47.8923077,48.9631571 47.8923077,49.1315789 L47.8923077,50.3 C47.8923077,50.4684219 47.8410262,50.6052626 47.7384615,50.7105263 C47.6358969,50.81579 47.5025649,50.8684211 47.3384615,50.8684211 C47.1641017,50.8684211 47.0256415,50.81579 46.9230769,50.7105263 C46.8205123,50.6052626 46.7692308,50.4684219 46.7692308,50.3 L46.7692308,49.1315789 C46.7692308,48.9631571 46.8205123,48.8263163 46.9230769,48.7210526 C47.0256415,48.6157889 47.1641017,48.5631579 47.3384615,48.5631579 Z M49.0153846,48.5631579 C49.1589751,48.5631579 49.289743,48.6157889 49.4076923,48.7210526 C49.5256416,48.8263163 49.5846154,48.9631571 49.5846154,49.1315789 L49.5846154,50.3 C49.5846154,50.4684219 49.5333338,50.6052626 49.4307692,50.7105263 C49.3282046,50.81579 49.1897445,50.8684211 49.0153846,50.8684211 C48.8512812,50.8684211 48.7179492,50.81579 48.6153846,50.7105263 C48.51282,50.6052626 48.4615385,50.4684219 48.4615385,50.3 L48.4615385,49.1315789 C48.4615385,48.9631571 48.51282,48.8263163 48.6153846,48.7210526 C48.7179492,48.6157889 48.8512812,48.5631579 49.0153846,48.5631579 Z" id="" fill="#FF7852"></path>
        <path d="M69.6661342,40.0476948 C69.7470718,40.0794914 69.8229496,40.1457335 69.89377,40.2464229 C69.9645903,40.3471123 70,40.4557493 70,40.572337 L70,45.2782194 C70,45.4584005 69.9494148,45.6014833 69.8482428,45.7074722 C69.7470708,45.813461 69.6104907,45.8664547 69.4384984,45.8664547 C69.2766233,45.8664547 69.1451017,45.813461 69.0439297,45.7074722 C68.9427577,45.6014833 68.8921725,45.4584005 68.8921725,45.2782194 L68.8921725,42.0190779 L62.8370607,48.7122417 C62.7561231,48.7970328 62.6549527,48.844727 62.5335463,48.8553259 C62.41214,48.8659248 62.3109695,48.8553261 62.230032,48.8235294 C62.1490944,48.8023316 62.0732165,48.7387393 62.0023962,48.6327504 C61.9315758,48.5267615 61.8961661,48.4154749 61.8961661,48.2988871 L61.8961661,44.9920509 L56.9033546,49.8251192 C56.8426515,49.8781137 56.7768907,49.9205086 56.7060703,49.9523052 C56.6352499,49.9841019 56.5694891,50 56.5087859,50 C56.4582,50 56.3949684,49.9841019 56.3190895,49.9523052 C56.2432105,49.9205086 56.179979,49.8781137 56.129393,49.8251192 C56.0383382,49.7085315 55.9953408,49.570748 56.0003994,49.4117647 C56.005458,49.2527814 56.063631,49.1149979 56.1749201,48.9984102 L62.1693291,43.3704293 C62.2502666,43.2750393 62.3438493,43.2167463 62.4500799,43.1955485 C62.5563104,43.1743507 62.6650687,43.1902488 62.7763578,43.2432432 C62.887647,43.2750399 62.9711126,43.341282 63.0267572,43.4419714 C63.0824018,43.5426608 63.1102236,43.6512978 63.1102236,43.7678855 L63.1102236,46.963434 L68.2244409,41.2082671 L65.0527157,41.2082671 C64.8908405,41.2082671 64.7593189,41.1552734 64.658147,41.0492846 C64.556975,40.9432957 64.5063898,40.8055122 64.5063898,40.63593 C64.5063898,40.455749 64.556975,40.3126661 64.658147,40.2066773 C64.7593189,40.1006884 64.8908405,40.0476948 65.0527157,40.0476948 L69.2260383,40.0476948 C69.2462727,40.0476948 69.2614483,40.0476948 69.2715655,40.0476948 C69.2816827,40.0476948 69.3019168,40.0476948 69.3322684,40.0476948 C69.3828544,40.0158981 69.4359688,40 69.4916134,40 C69.547258,40 69.605431,40.0158981 69.6661342,40.0476948 Z" id="" fill="#FF7852"></path>
        <path d="M78.3768293,41.1570605 C78.1971536,41.1570605 78.0544721,41.1042272 77.9487805,40.9985591 C77.8430889,40.8928909 77.7902439,40.7502411 77.7902439,40.5706052 C77.7902439,40.4015361 77.8430889,40.2641696 77.9487805,40.1585014 C78.0544721,40.0528333 78.1971536,40 78.3768293,40 L87.4134146,40 C87.5825212,40 87.7225604,40.0528333 87.8335366,40.1585014 C87.9445128,40.2641696 88,40.4015361 88,40.5706052 C88,40.7502411 87.9445128,40.8928909 87.8335366,40.9985591 C87.7225604,41.1042272 87.5825212,41.1570605 87.4134146,41.1570605 L78.3768293,41.1570605 Z M76.2207317,40 C76.4004074,40 76.5430889,40.0528333 76.6487805,40.1585014 C76.7544721,40.2641696 76.8073171,40.4015361 76.8073171,40.5706052 C76.8073171,40.7502411 76.7544721,40.8928909 76.6487805,40.9985591 C76.5430889,41.1042272 76.4004074,41.1570605 76.2207317,41.1570605 L75.5865854,41.1570605 C75.4174788,41.1570605 75.2774396,41.1042272 75.1664634,40.9985591 C75.0554872,40.8928909 75,40.7502411 75,40.5706052 C75,40.4015361 75.0554872,40.2641696 75.1664634,40.1585014 C75.2774396,40.0528333 75.4174788,40 75.5865854,40 L76.2207317,40 Z M87.4134146,44.9135447 C87.5825212,44.9135447 87.7225604,44.9690196 87.8335366,45.0799712 C87.9445128,45.1909227 88,45.330931 88,45.5 C88,45.669069 87.9445128,45.8090773 87.8335366,45.9200288 C87.7225604,46.0309804 87.5825212,46.0864553 87.4134146,46.0864553 L78.3768293,46.0864553 C78.1971536,46.0864553 78.0544721,46.0309804 77.9487805,45.9200288 C77.8430889,45.8090773 77.7902439,45.669069 77.7902439,45.5 C77.7902439,45.330931 77.8430889,45.1909227 77.9487805,45.0799712 C78.0544721,44.9690196 78.1971536,44.9135447 78.3768293,44.9135447 L87.4134146,44.9135447 Z M76.2207317,44.9135447 C76.4004074,44.9135447 76.5430889,44.9690196 76.6487805,45.0799712 C76.7544721,45.1909227 76.8073171,45.330931 76.8073171,45.5 C76.8073171,45.669069 76.7544721,45.8090773 76.6487805,45.9200288 C76.5430889,46.0309804 76.4004074,46.0864553 76.2207317,46.0864553 L75.5865854,46.0864553 C75.4174788,46.0864553 75.2774396,46.0309804 75.1664634,45.9200288 C75.0554872,45.8090773 75,45.669069 75,45.5 C75,45.330931 75.0554872,45.1909227 75.1664634,45.0799712 C75.2774396,44.9690196 75.4174788,44.9135447 75.5865854,44.9135447 L76.2207317,44.9135447 Z M87.4134146,49.8429395 C87.5825212,49.8429395 87.7225604,49.8957728 87.8335366,50.0014409 C87.9445128,50.1071091 88,50.2497589 88,50.4293948 C88,50.5984639 87.9445128,50.7358304 87.8335366,50.8414986 C87.7225604,50.9471667 87.5825212,51 87.4134146,51 L78.3768293,51 C78.1971536,51 78.0544721,50.9471667 77.9487805,50.8414986 C77.8430889,50.7358304 77.7902439,50.5984639 77.7902439,50.4293948 C77.7902439,50.2497589 77.8430889,50.1071091 77.9487805,50.0014409 C78.0544721,49.8957728 78.1971536,49.8429395 78.3768293,49.8429395 L87.4134146,49.8429395 Z M76.2207317,49.8429395 C76.4004074,49.8429395 76.5430889,49.8957728 76.6487805,50.0014409 C76.7544721,50.1071091 76.8073171,50.2497589 76.8073171,50.4293948 C76.8073171,50.5984639 76.7544721,50.7358304 76.6487805,50.8414986 C76.5430889,50.9471667 76.4004074,51 76.2207317,51 L75.5865854,51 C75.4174788,51 75.2774396,50.9471667 75.1664634,50.8414986 C75.0554872,50.7358304 75,50.5984639 75,50.4293948 C75,50.2497589 75.0554872,50.1071091 75.1664634,50.0014409 C75.2774396,49.8957728 75.4174788,49.8429395 75.5865854,49.8429395 L76.2207317,49.8429395 Z" id="" fill="#FF7852"></path>
        <path d="M94.5745342,5.15706052 C94.3985498,5.15706052 94.2587997,5.10422723 94.1552795,4.99855908 C94.0517593,4.89289092 94,4.75024105 94,4.57060519 C94,4.40153614 94.0517593,4.2641696 94.1552795,4.15850144 C94.2587997,4.05283329 94.3985498,4 94.5745342,4 L103.425466,4 C103.591098,4 103.72826,4.05283329 103.836957,4.15850144 C103.945653,4.2641696 104,4.40153614 104,4.57060519 C104,4.75024105 103.945653,4.89289092 103.836957,4.99855908 C103.72826,5.10422723 103.591098,5.15706052 103.425466,5.15706052 L94.5745342,5.15706052 Z M103.425466,8.91354467 C103.591098,8.91354467 103.72826,8.96901962 103.836957,9.07997118 C103.945653,9.19092274 104,9.33093095 104,9.5 C104,9.66906905 103.945653,9.80907726 103.836957,9.92002882 C103.72826,10.0309804 103.591098,10.0864553 103.425466,10.0864553 L94.5745342,10.0864553 C94.3985498,10.0864553 94.2587997,10.0309804 94.1552795,9.92002882 C94.0517593,9.80907726 94,9.66906905 94,9.5 C94,9.33093095 94.0517593,9.19092274 94.1552795,9.07997118 C94.2587997,8.96901962 94.3985498,8.91354467 94.5745342,8.91354467 L103.425466,8.91354467 Z M103.425466,13.8429395 C103.591098,13.8429395 103.72826,13.8957728 103.836957,14.0014409 C103.945653,14.1071091 104,14.2497589 104,14.4293948 C104,14.5984639 103.945653,14.7358304 103.836957,14.8414986 C103.72826,14.9471667 103.591098,15 103.425466,15 L94.5745342,15 C94.3985498,15 94.2587997,14.9471667 94.1552795,14.8414986 C94.0517593,14.7358304 94,14.5984639 94,14.4293948 C94,14.2497589 94.0517593,14.1071091 94.1552795,14.0014409 C94.2587997,13.8957728 94.3985498,13.8429395 94.5745342,13.8429395 L103.425466,13.8429395 Z" id="" fill="#FF7852" transform="translate(99.000000, 9.500000) rotate(-270.000000) translate(-99.000000, -9.500000) "></path>
        <path d="M97.6680585,38 C98.0647201,38 98.4013556,38.1394723 98.6779749,38.4184211 C98.9545943,38.6973698 99.0929019,39.0368401 99.0929019,39.4368421 L99.0929019,43.6526316 C99.0929019,43.8210535 99.0641965,43.9894728 99.006785,44.1578947 C98.9493734,44.3263166 98.8632574,44.4842098 98.7484342,44.6315789 C98.6336111,44.8105272 98.4822556,44.9421048 98.2943633,45.0263158 C98.1064709,45.1105267 97.8977047,45.1526316 97.6680585,45.1526316 L93.4248434,45.1526316 C93.0281817,45.1526316 92.6915463,45.0131593 92.4149269,44.7342105 C92.1383076,44.4552618 92,44.1157915 92,43.7157895 L92,39.4368421 C92,39.0368401 92.1383076,38.6973698 92.4149269,38.4184211 C92.6915463,38.1394723 93.0281817,38 93.4248434,38 L97.6680585,38 Z M97.9029228,43.8894737 C97.9237997,43.8894737 97.9368476,43.8763159 97.9420668,43.85 C97.947286,43.8236841 97.9498956,43.794737 97.9498956,43.7631579 L97.9498956,39.4368421 C97.9498956,39.3842103 97.9159711,39.3236846 97.8481211,39.2552632 C97.7802711,39.1868418 97.7202508,39.1526316 97.6680585,39.1526316 L93.4248434,39.1526316 C93.3726511,39.1526316 93.3126308,39.1868418 93.2447808,39.2552632 C93.1769308,39.3236846 93.1430063,39.3842103 93.1430063,39.4368421 L93.1430063,43.7157895 C93.1430063,43.7684213 93.1769308,43.828947 93.2447808,43.8973684 C93.3126308,43.9657898 93.3726511,44 93.4248434,44 L97.6680585,44 C97.6993739,44 97.7385175,43.9868422 97.7854906,43.9605263 C97.8324637,43.9342104 97.8716074,43.9105264 97.9029228,43.8894737 Z M105.575157,38 C105.971818,38 106.308454,38.1394723 106.585073,38.4184211 C106.861692,38.6973698 107,39.0368401 107,39.4368421 L107,43.7157895 C107,44.1157915 106.861692,44.4552618 106.585073,44.7342105 C106.308454,45.0131593 105.971818,45.1526316 105.575157,45.1526316 L101.331942,45.1526316 C100.93528,45.1526316 100.598644,45.0131593 100.322025,44.7342105 C100.045406,44.4552618 99.9070981,44.1157915 99.9070981,43.7157895 L99.9070981,39.4368421 C99.9070981,39.0368401 100.045406,38.6973698 100.322025,38.4184211 C100.598644,38.1394723 100.93528,38 101.331942,38 L105.575157,38 Z M105.856994,43.7157895 L105.856994,39.4368421 C105.856994,39.3842103 105.823069,39.3236846 105.755219,39.2552632 C105.687369,39.1868418 105.627349,39.1526316 105.575157,39.1526316 L101.331942,39.1526316 C101.279749,39.1526316 101.219729,39.1868418 101.151879,39.2552632 C101.084029,39.3236846 101.050104,39.3842103 101.050104,39.4368421 L101.050104,43.7157895 C101.050104,43.7684213 101.084029,43.828947 101.151879,43.8973684 C101.219729,43.9657898 101.279749,44 101.331942,44 L105.575157,44 C105.627349,44 105.687369,43.9657898 105.755219,43.8973684 C105.823069,43.828947 105.856994,43.7684213 105.856994,43.7157895 Z M97.6680585,45.8473684 C98.0647201,45.8473684 98.4013556,45.9868407 98.6779749,46.2657895 C98.9545943,46.5447382 99.0929019,46.8842085 99.0929019,47.2842105 L99.0929019,51.5 C99.0929019,51.6789483 99.0641965,51.8526307 99.006785,52.0210526 C98.9493734,52.1894745 98.8632574,52.3473677 98.7484342,52.4947368 C98.6336111,52.6631587 98.4822556,52.7894733 98.2943633,52.8736842 C98.1064709,52.9578952 97.8977047,53 97.6680585,53 L93.4248434,53 C93.0281817,53 92.6915463,52.8605277 92.4149269,52.5815789 C92.1383076,52.3026302 92,51.9631599 92,51.5631579 L92,47.2842105 C92,46.8842085 92.1383076,46.5447382 92.4149269,46.2657895 C92.6915463,45.9868407 93.0281817,45.8473684 93.4248434,45.8473684 L97.6680585,45.8473684 Z M97.9029228,51.7368421 C97.9237997,51.7368421 97.9368476,51.7236843 97.9420668,51.6973684 C97.947286,51.6710525 97.9498956,51.6473685 97.9498956,51.6263158 L97.9498956,47.2842105 C97.9498956,47.2315787 97.9159711,47.171053 97.8481211,47.1026316 C97.7802711,47.0342102 97.7202508,47 97.6680585,47 L93.4248434,47 C93.3726511,47 93.3126308,47.0342102 93.2447808,47.1026316 C93.1769308,47.171053 93.1430063,47.2315787 93.1430063,47.2842105 L93.1430063,51.5631579 C93.1430063,51.6157897 93.1769308,51.6763154 93.2447808,51.7447368 C93.3126308,51.8131582 93.3726511,51.8473684 93.4248434,51.8473684 L97.6680585,51.8473684 C97.7202508,51.8473684 97.7646136,51.8368422 97.8011482,51.8157895 C97.8376829,51.7947367 97.8716074,51.7684212 97.9029228,51.7368421 Z M105.575157,45.8473684 C105.971818,45.8473684 106.308454,45.9868407 106.585073,46.2657895 C106.861692,46.5447382 107,46.8842085 107,47.2842105 L107,51.5631579 C107,51.9631599 106.861692,52.3026302 106.585073,52.5815789 C106.308454,52.8605277 105.971818,53 105.575157,53 L101.331942,53 C100.93528,53 100.598644,52.8605277 100.322025,52.5815789 C100.045406,52.3026302 99.9070981,51.9631599 99.9070981,51.5631579 L99.9070981,47.2842105 C99.9070981,46.8842085 100.045406,46.5447382 100.322025,46.2657895 C100.598644,45.9868407 100.93528,45.8473684 101.331942,45.8473684 L105.575157,45.8473684 Z M105.856994,51.5631579 L105.856994,47.2842105 C105.856994,47.2315787 105.823069,47.171053 105.755219,47.1026316 C105.687369,47.0342102 105.627349,47 105.575157,47 L101.331942,47 C101.279749,47 101.219729,47.0342102 101.151879,47.1026316 C101.084029,47.171053 101.050104,47.2315787 101.050104,47.2842105 L101.050104,51.5631579 C101.050104,51.6157897 101.084029,51.6763154 101.151879,51.7447368 C101.219729,51.8131582 101.279749,51.8473684 101.331942,51.8473684 L105.575157,51.8473684 C105.627349,51.8473684 105.687369,51.8131582 105.755219,51.7447368 C105.823069,51.6763154 105.856994,51.6157897 105.856994,51.5631579 Z" id="" fill="#FF7852"></path>
        <path d="M101.274964,20 C101.848049,20 102.362757,20.1077575 102.819103,20.3232759 C103.264836,20.5495701 103.64954,20.8405155 103.973227,21.1961207 C104.296914,21.5517259 104.543656,21.9558167 104.713459,22.4084052 C104.893875,22.8609936 104.989387,23.3189632 105,23.7823276 L105,32.8178879 C105,33.4105633 104.787749,33.9224116 104.363242,34.3534483 C103.938734,34.7844849 103.434639,35 102.850941,35 L96.1649783,35 C95.5812802,35 95.0745318,34.7844849 94.6447178,34.3534483 C94.2149038,33.9224116 94,33.4105633 94,32.8178879 L94,22.1821121 C94,21.5894367 94.2069444,21.0775884 94.6208394,20.6465517 C95.0347343,20.2155151 95.5494422,20 96.1649783,20 L101.274964,20 Z M103.726483,23.2489224 C103.641582,22.8071099 103.421372,22.3733857 103.065847,21.9477371 C102.710321,21.5220884 102.214186,21.2661642 101.577424,21.1799569 L101.577424,23.0064655 C101.577424,23.071121 101.601302,23.1276937 101.649059,23.1761853 C101.696816,23.224677 101.747226,23.2489224 101.800289,23.2489224 L103.726483,23.2489224 Z M103.790159,32.8178879 L103.837916,32.8178879 L103.837916,24.4288793 L101.863965,24.4288793 C101.481908,24.4288793 101.15292,24.2887945 100.87699,24.0086207 C100.60106,23.7284469 100.463097,23.3943985 100.463097,23.0064655 L100.463097,21.1799569 L96.1649783,21.1799569 C95.8678229,21.1799569 95.6263878,21.2715508 95.4406657,21.4547414 C95.2549436,21.637932 95.1620839,21.8803864 95.1620839,22.1821121 L95.1620839,32.8178879 C95.1620839,33.1196136 95.2549436,33.362068 95.4406657,33.5452586 C95.6263878,33.7284492 95.8678229,33.8200431 96.1649783,33.8200431 L102.787265,33.8200431 C103.08442,33.8200431 103.325855,33.7284492 103.511577,33.5452586 C103.6973,33.362068 103.790159,33.1196136 103.790159,32.8178879 Z M102.452967,29.7467672 C102.590932,29.7467672 102.710323,29.800646 102.811143,29.9084052 C102.911964,30.0161643 102.962373,30.161637 102.962373,30.3448276 C102.962373,30.5172422 102.909311,30.657327 102.803184,30.7650862 C102.697057,30.8728454 102.559094,30.9267241 102.389291,30.9267241 L96.4992764,30.9267241 C96.3294733,30.9267241 96.1915104,30.8728454 96.0853835,30.7650862 C95.9792566,30.657327 95.9261939,30.5172422 95.9261939,30.3448276 C95.9261939,30.161637 95.9792566,30.0161643 96.0853835,29.9084052 C96.1915104,29.800646 96.3294733,29.7467672 96.4992764,29.7467672 L102.452967,29.7467672 Z M95.9261939,27.3868534 C95.9261939,27.2036629 95.987216,27.0581902 96.1092619,26.950431 C96.2313079,26.8426719 96.3613114,26.7887931 96.4992764,26.7887931 L102.389291,26.7887931 C102.559094,26.7887931 102.697057,26.8426719 102.803184,26.950431 C102.909311,27.0581902 102.962373,27.2036629 102.962373,27.3868534 C102.962373,27.5592681 102.909311,27.6993529 102.803184,27.8071121 C102.697057,27.9148712 102.559094,27.96875 102.389291,27.96875 L96.4992764,27.96875 C96.3294733,27.96875 96.1915104,27.9148712 96.0853835,27.8071121 C95.9792566,27.6993529 95.9261939,27.5592681 95.9261939,27.3868534 Z M96.4992764,25.0107759 C96.3613114,25.0107759 96.2313079,24.9568971 96.1092619,24.8491379 C95.987216,24.7413788 95.9261939,24.601294 95.9261939,24.4288793 C95.9261939,24.2456887 95.9792566,24.1002161 96.0853835,23.9924569 C96.1915104,23.8846977 96.3294733,23.830819 96.4992764,23.830819 L98.7120116,23.830819 C98.8924273,23.830819 99.0356965,23.8846977 99.1418234,23.9924569 C99.2479504,24.1002161 99.301013,24.2456887 99.301013,24.4288793 C99.301013,24.601294 99.2479504,24.7413788 99.1418234,24.8491379 C99.0356965,24.9568971 98.8924273,25.0107759 98.7120116,25.0107759 L96.4992764,25.0107759 Z" id="" fill="#FF7852"></path>
        <path d="M13.9205021,7.09765625 L12.1004184,8.85546875 L5.42677824,2.38085938 L13.9205021,7.09765625 Z M3.66736402,2 L11.4633891,9.5 L3.66736402,17 C3.22245245,16.7851552 3,16.4433617 3,15.9746094 L3,3.02539062 C3,2.55663828 3.22245245,2.21484482 3.66736402,2 Z M16.5596234,8.62109375 C16.842749,8.81640723 16.9893654,9.10937305 16.999477,9.5 C17.0095886,9.89062695 16.8730837,10.1835928 16.5899581,10.3789062 L14.7698745,11.375 L12.7981171,9.5 L14.7698745,7.59570312 L16.5596234,8.62109375 Z M5.42677824,16.6191406 L12.1004184,10.1445312 L13.9205021,11.9023438 L5.42677824,16.6191406 Z" id="" fill="#FFFFFF"></path>
        <path d="M25.0201613,13.2598207 C25.0201613,13.3370092 24.9647183,13.3804271 24.8538306,13.3900757 C24.742943,13.3997242 24.6875,13.3659548 24.6875,13.2887662 C24.6875,13.2115777 24.7379027,13.172984 24.8387097,13.172984 C24.8991939,13.172984 24.9445563,13.1826324 24.9747984,13.2019296 C25.0050405,13.2212267 25.0201613,13.2405235 25.0201613,13.2598207 Z M24.0826613,13.1440385 C24.1028227,13.0668499 24.1633059,13.0427289 24.2641129,13.0716746 C24.3649199,13.1006203 24.4102823,13.139214 24.4002016,13.1874568 C24.3901209,13.2356996 24.3649196,13.2694691 24.3245968,13.2887662 C24.284274,13.3080634 24.2439518,13.3080634 24.203629,13.2887662 C24.1633062,13.2694691 24.1280243,13.245348 24.0977823,13.2164023 C24.0675402,13.1874566 24.0624999,13.1633356 24.0826613,13.1440385 Z M25.4133065,13.0861473 C25.5141134,13.0861473 25.5695564,13.1150926 25.5796371,13.172984 C25.5897178,13.2308754 25.5443553,13.2791175 25.4435484,13.3177118 C25.4032256,13.3177118 25.3679437,13.3128876 25.3377016,13.303239 C25.3074595,13.2935904 25.2872984,13.259821 25.2772177,13.2019296 C25.267137,13.1440382 25.3124995,13.1054445 25.4133065,13.0861473 Z M27.4092742,2 C28.7802488,2 30.0503974,2.30874949 31.2197581,2.92625774 C32.3891188,3.54376599 33.3064483,4.38317868 33.9717742,5.44452098 C34.6572615,6.54445755 35,7.75051025 35,9.06271528 C35,10.6643773 34.5312547,12.0971679 33.59375,13.3611301 C32.6562453,14.6250923 31.4314592,15.4982745 29.9193548,15.9807028 C29.7580637,16.0192971 29.6320569,16.0000002 29.5413306,15.9228117 C29.4506044,15.8456232 29.4052419,15.7491389 29.4052419,15.6333561 L29.4052419,13.2019296 C29.4052419,12.5844213 29.2338727,12.1405939 28.891129,11.8704341 C29.6371005,11.7932455 30.1915304,11.6967613 30.5544355,11.5809785 C31.1189544,11.3880072 31.5524178,11.0985545 31.8548387,10.7126119 C32.1975824,10.2108864 32.3689516,9.52584849 32.3689516,8.65747752 C32.3689516,8.290832 32.2983878,7.97243408 32.1572581,7.70227422 C32.0564511,7.5093029 31.8649208,7.26809235 31.5826613,6.97863536 C31.6633069,6.78566404 31.7137096,6.55410192 31.733871,6.28394206 C31.7540324,5.85940514 31.6834685,5.43487458 31.5221774,5.01033766 C31.3205635,4.95244626 31.0383083,4.99103995 30.6754032,5.12611988 C30.4334665,5.22260554 30.1512113,5.35768345 29.828629,5.53135764 L29.4354839,5.79186763 C28.8104807,5.61819344 28.1703662,5.53135764 27.515121,5.53135764 C26.8598758,5.53135764 26.2298417,5.61819344 25.625,5.79186763 L25.2318548,5.53135764 C24.9092726,5.35768345 24.6169368,5.22260554 24.3548387,5.12611988 C23.9919337,4.99103995 23.719759,4.95244626 23.5383065,5.01033766 C23.3568539,5.43487458 23.2862901,5.85940514 23.3266129,6.28394206 C23.3266129,6.55410192 23.3669351,6.77601561 23.4475806,6.94968981 C23.205644,7.2391468 23.0292344,7.5044784 22.9183468,7.74569256 C22.8074591,7.98690672 22.7520161,8.290832 22.7520161,8.65747752 C22.7520161,9.52584849 22.9133048,10.201238 23.2358871,10.6836663 C23.5181466,11.0889061 23.9415294,11.3880072 24.5060484,11.5809785 C24.8689534,11.6967613 25.4133028,11.7932455 26.1391129,11.8704341 C25.8770148,12.1019997 25.7157261,12.430046 25.6552419,12.8545829 C25.3124983,13.00896 24.9798403,13.0668505 24.6572581,13.0282562 C24.1330619,12.989662 23.7298401,12.7291546 23.4475806,12.2467263 C23.3266123,12.0344578 23.1653236,11.8607862 22.9637097,11.7257063 C22.8225799,11.6485178 22.6713718,11.5809788 22.5100806,11.5230874 L22.2983871,11.4941419 C22.0766118,11.4941419 21.9606855,11.5279113 21.9506048,11.5954513 C21.9405241,11.6629913 21.9858866,11.7353544 22.0866935,11.812543 L22.2379032,11.9283252 C22.379033,12.0055137 22.5201606,12.1309432 22.6612903,12.3046174 C22.7822587,12.4396973 22.8830641,12.5940721 22.9637097,12.7677462 L23.0846774,12.9993107 C23.1854844,13.2887677 23.3770147,13.5106814 23.6592742,13.6650584 C23.9012109,13.8001384 24.1935467,13.8869742 24.5362903,13.9255684 C24.778227,13.9448656 25.0302406,13.9352171 25.2923387,13.8966229 L25.625,13.8676773 L25.6552419,15.6333561 C25.6552419,15.7491389 25.6098795,15.8456232 25.5191532,15.9228117 C25.428427,16.0000002 25.3024202,16.0192971 25.141129,15.9807028 C23.6088633,15.4982745 22.3689564,14.6250923 21.421371,13.3611301 C20.4737856,12.0971679 20,10.6643773 20,9.06271528 C20,7.75051025 20.3225774,6.55410597 20.9677419,5.47346653 C21.6129065,4.3928271 22.4999944,3.54376599 23.6290323,2.92625774 C24.7580702,2.30874949 26.0181382,2 27.4092742,2 Z M22.9334677,11.9862163 C22.9737905,11.947622 23.0241932,11.9572704 23.0846774,12.0151618 C23.1451616,12.0730532 23.1552421,12.1212953 23.1149194,12.1598896 C23.0745966,12.1984839 23.0241939,12.1888355 22.9637097,12.1309441 C22.9032255,12.0730527 22.893145,12.0248105 22.9334677,11.9862163 Z M22.6008065,11.7546518 C22.6411292,11.7160576 22.691532,11.7112334 22.7520161,11.7401791 C22.8125003,11.7691248 22.8326614,11.8077185 22.8125,11.8559613 C22.7923386,11.9042041 22.7469762,11.9090283 22.6764113,11.8704341 C22.6058464,11.8318398 22.5806451,11.7932461 22.6008065,11.7546518 Z M23.5987903,12.7677462 C23.6189517,12.7484491 23.6491933,12.7436249 23.6895161,12.7532735 C23.7298389,12.762922 23.7651208,12.7822189 23.7953629,12.8111646 C23.825605,12.8401103 23.8457661,12.8738798 23.8558468,12.912474 C23.8659275,12.9510683 23.8608872,12.9800136 23.8407258,12.9993107 C23.7802416,13.0572021 23.7096778,13.0475537 23.6290323,12.9703651 C23.5887095,12.9317709 23.5685484,12.8931772 23.5685484,12.8545829 C23.5685484,12.8159886 23.5786289,12.7870434 23.5987903,12.7677462 Z M23.2358871,12.3625085 C23.2762099,12.3432114 23.3114918,12.3383871 23.3417339,12.3480357 C23.371976,12.3576843 23.3971773,12.3818053 23.4173387,12.4203996 C23.4778229,12.4975881 23.4778229,12.5554787 23.4173387,12.5940729 C23.3971773,12.6133701 23.371976,12.6133701 23.3417339,12.5940729 C23.3114918,12.5747758 23.2762099,12.5554789 23.2358871,12.5361818 C23.1955643,12.4396962 23.1955643,12.3818056 23.2358871,12.3625085 Z" id="" fill="#FFFFFF"></path>
        <path d="M126.654013,83.0302479 C126.884672,83.2632305 127,83.5332744 127,83.8403879 C127,84.1475013 126.884672,84.4175453 126.654013,84.6505279 C126.528199,84.756429 126.402387,84.8411487 126.276573,84.9046894 C126.150759,84.9682301 126.003978,85 125.836226,85 C125.731381,85 125.600326,84.9682301 125.443059,84.9046894 C125.285791,84.8411487 125.154737,84.756429 125.049892,84.6505279 L118.601952,78.010557 C117.511564,79.0060281 116.269168,79.7579152 114.874729,80.2662409 C113.480289,80.7745665 112.038691,81.0287256 110.549892,81.0287256 C108.830432,81.0287256 107.205358,80.6898469 105.67462,80.0120793 C104.143882,79.3343118 102.81237,78.4076903 101.680043,77.2321872 C100.547717,76.0566841 99.656547,74.6746944 99.0065076,73.0861767 C98.3354992,71.5188392 98,69.8350357 98,68.0347156 C98,66.2343956 98.3354992,64.5400021 99.0065076,62.9514844 C99.656547,61.3841469 100.547717,60.0074522 101.680043,58.821359 C102.81237,57.6352657 104.143882,56.7033493 105.67462,56.0255818 C107.205358,55.3478142 108.830432,55.0089355 110.549892,55.0089355 C112.164506,54.9453948 113.705705,55.2207337 115.173536,55.8349606 C116.641367,56.4491874 117.972879,57.338744 119.168113,58.503657 C119.797183,59.1390641 120.352854,59.8274114 120.835141,60.5687197 C121.338397,61.2888477 121.752529,62.0566198 122.077549,62.8720589 C122.402569,63.687498 122.648951,64.5188098 122.816703,65.3660192 C122.984455,66.2344089 123.06833,67.1239655 123.06833,68.0347156 C123.06833,69.6020531 122.821948,71.0952374 122.329176,72.5143132 C121.836404,73.933389 121.12871,75.225364 120.206074,76.390277 L126.654013,83.0302479 Z M100.296095,68.0347156 C100.296095,69.5173322 100.568689,70.9046168 101.113883,72.1966112 C101.659077,73.4886056 102.392982,74.6217313 103.315618,75.5960222 C104.238255,76.570313 105.318143,77.3327901 106.555315,77.8834762 C107.813455,78.4341624 109.144968,78.7095013 110.549892,78.7095013 C111.933846,78.7095013 113.254874,78.4341624 114.513015,77.8834762 C115.771156,77.3327901 116.861528,76.570313 117.784165,75.5960222 C118.706801,74.6005511 119.435464,73.4515405 119.970174,72.1489559 C120.504883,70.8463714 120.772234,69.4749717 120.772234,68.0347156 C120.772234,66.5732793 120.494399,65.1542248 119.93872,63.7775095 C119.383041,62.4007941 118.591473,61.2253086 117.563991,60.2510178 C116.641355,59.3190874 115.59292,58.5989701 114.418655,58.0906445 C113.24439,57.5823188 112.028206,57.3281598 110.770065,57.3281598 L110.549892,57.3281598 C109.144968,57.3281598 107.813455,57.6140887 106.555315,58.1859551 C105.318143,58.7366412 104.238255,59.4938233 103.315618,60.457524 C102.392982,61.4212248 101.659077,62.5596454 101.113883,63.87282 C100.568689,65.1648144 100.296095,66.5520991 100.296095,68.0347156 Z" id="" fill="#FF7852"></path>
        <path d="M121.846154,87 C122.974365,87 123.933329,87.4210484 124.723077,88.2631579 C125.512824,89.1052674 125.938461,90.1052574 126,91.2631579 L126,112.736842 C126,113.894743 125.589748,114.894733 124.769231,115.736842 C123.948714,116.578952 122.974365,117 121.846154,117 L102.153846,117 C101.025635,117 100.051286,116.578952 99.2307692,115.736842 C98.4102523,114.894733 98,113.894743 98,112.736842 L98,91.2631579 C98,90.1052574 98.4102523,89.1052674 99.2307692,88.2631579 C100.051286,87.4210484 101.025635,87 102.153846,87 L121.846154,87 Z M108.8,89.3052632 L108.8,96.0947368 C108.902565,96.1578951 109.010256,96.1894737 109.123077,96.1894737 C109.235898,96.1894737 109.353846,96.1578951 109.476923,96.0947368 L111.138462,95.0842105 C111.589746,94.7894722 112.117946,94.6421053 112.723077,94.6421053 C113.328208,94.6421053 113.856408,94.7894722 114.307692,95.0842105 C114.369231,95.0842105 114.420513,95.0999998 114.461538,95.1315789 L114.523077,95.1789474 L115.538462,96.0947368 L115.830769,96.0947368 C115.964103,96.0947368 116.051282,96.0631582 116.092308,96 L116.092308,89.3052632 L108.8,89.3052632 Z M123.630769,112.736842 L123.753846,112.736842 L123.753846,91.2631579 C123.753846,90.6736813 123.574361,90.2000018 123.215385,89.8421053 C122.856408,89.4842087 122.400003,89.3052632 121.846154,89.3052632 L118.338462,89.3052632 L118.338462,96.0947368 C118.338462,96.5157916 118.23077,96.8947352 118.015385,97.2315789 C117.799999,97.5684227 117.497438,97.8526304 117.107692,98.0842105 C116.615382,98.3157906 116.087182,98.4052634 115.523077,98.3526316 C114.958972,98.2999997 114.471797,98.1263173 114.061538,97.8315789 L113.076923,96.9157895 C112.953846,96.8526313 112.815385,96.8210526 112.661538,96.8210526 C112.507692,96.8210526 112.379488,96.8526313 112.276923,96.9157895 L110.584615,97.9578947 C110.358973,98.1263166 110.128206,98.2473681 109.892308,98.3210526 C109.656409,98.3947372 109.40513,98.4315789 109.138462,98.4315789 C108.851281,98.4315789 108.589745,98.4000003 108.353846,98.3368421 C108.117948,98.2736839 107.887181,98.1894742 107.661538,98.0842105 C107.333332,97.8947359 107.06154,97.6368437 106.846154,97.3105263 C106.630768,96.9842089 106.523077,96.6210546 106.523077,96.2210526 L106.523077,89.3052632 L102.153846,89.3052632 C101.579484,89.3052632 101.11795,89.4842087 100.769231,89.8421053 C100.420511,90.2000018 100.246154,90.6736813 100.246154,91.2631579 L100.246154,112.736842 C100.246154,113.326319 100.420511,113.799998 100.769231,114.157895 C101.11795,114.515791 101.579484,114.694737 102.153846,114.694737 L121.723077,114.694737 C122.297439,114.694737 122.758973,114.515791 123.107692,114.157895 C123.456412,113.799998 123.630769,113.326319 123.630769,112.736842 Z M113.292308,108.126316 C113.579489,108.126316 113.835896,108.231578 114.061538,108.442105 C114.287181,108.652633 114.4,108.926314 114.4,109.263158 L114.4,111.6 C114.4,111.936844 114.297437,112.210525 114.092308,112.421053 C113.887178,112.63158 113.620514,112.736842 113.292308,112.736842 C112.943588,112.736842 112.666668,112.63158 112.461538,112.421053 C112.256409,112.210525 112.153846,111.936844 112.153846,111.6 L112.153846,109.263158 C112.153846,108.926314 112.256409,108.652633 112.461538,108.442105 C112.666668,108.231578 112.943588,108.126316 113.292308,108.126316 Z M116.676923,108.126316 C116.943591,108.126316 117.194871,108.231578 117.430769,108.442105 C117.666668,108.652633 117.784615,108.926314 117.784615,109.263158 L117.784615,111.6 C117.784615,111.936844 117.682052,112.210525 117.476923,112.421053 C117.271794,112.63158 117.00513,112.736842 116.676923,112.736842 C116.328203,112.736842 116.051283,112.63158 115.846154,112.421053 C115.641025,112.210525 115.538462,111.936844 115.538462,111.6 L115.538462,109.263158 C115.538462,108.926314 115.641025,108.652633 115.846154,108.442105 C116.051283,108.231578 116.328203,108.126316 116.676923,108.126316 Z M120.030769,108.126316 C120.31795,108.126316 120.579486,108.231578 120.815385,108.442105 C121.051283,108.652633 121.169231,108.926314 121.169231,109.263158 L121.169231,111.6 C121.169231,111.936844 121.066668,112.210525 120.861538,112.421053 C120.656409,112.63158 120.379489,112.736842 120.030769,112.736842 C119.702562,112.736842 119.435898,112.63158 119.230769,112.421053 C119.02564,112.210525 118.923077,111.936844 118.923077,111.6 L118.923077,109.263158 C118.923077,108.926314 119.02564,108.652633 119.230769,108.442105 C119.435898,108.231578 119.702562,108.126316 120.030769,108.126316 Z" id="" fill="#FF7852"></path>
        <path d="M83.5499276,88 C84.6960984,88 85.725514,88.2083313 86.6382055,88.625 C87.5296716,89.0625022 88.2990802,89.6249966 88.9464544,90.3125 C89.5938286,91.0000034 90.0873114,91.7812456 90.4269175,92.65625 C90.787749,93.5312544 90.9787746,94.4166622 91,95.3125 L91,112.78125 C91,113.927089 90.5754987,114.916663 89.7264834,115.75 C88.877468,116.583337 87.8692774,117 86.7018813,117 L73.3299566,117 C72.1625605,117 71.1490636,116.583337 70.2894356,115.75 C69.4298076,114.916663 69,113.927089 69,112.78125 L69,92.21875 C69,91.0729109 69.4138888,90.0833375 70.2416787,89.25 C71.0694687,88.4166625 72.0988843,88 73.3299566,88 L83.5499276,88 Z M88.4529667,94.28125 C88.2831636,93.4270791 87.8427435,92.5885458 87.1316932,91.765625 C86.4206429,90.9427042 85.4283711,90.4479175 84.154848,90.28125 L84.154848,93.8125 C84.154848,93.9375006 84.2026044,94.0468745 84.2981187,94.140625 C84.3936329,94.2343755 84.494452,94.28125 84.6005789,94.28125 L88.4529667,94.28125 Z M88.5803184,112.78125 L88.6758321,112.78125 L88.6758321,96.5625 L84.7279305,96.5625 C83.9638167,96.5625 83.3058397,96.2916694 82.7539797,95.75 C82.2021198,95.2083306 81.9261939,94.5625037 81.9261939,93.8125 L81.9261939,90.28125 L73.3299566,90.28125 C72.7356458,90.28125 72.2527756,90.4583316 71.8813314,90.8125 C71.5098872,91.1666684 71.3241679,91.6354137 71.3241679,92.21875 L71.3241679,112.78125 C71.3241679,113.364586 71.5098872,113.833332 71.8813314,114.1875 C72.2527756,114.541668 72.7356458,114.71875 73.3299566,114.71875 L86.5745297,114.71875 C87.1688404,114.71875 87.6517106,114.541668 88.0231548,114.1875 C88.3945991,113.833332 88.5803184,113.364586 88.5803184,112.78125 Z M85.9059334,106.84375 C86.1818634,106.84375 86.4206454,106.947916 86.6222865,107.15625 C86.8239277,107.364584 86.9247467,107.645832 86.9247467,108 C86.9247467,108.333335 86.8186214,108.604166 86.6063676,108.8125 C86.3941137,109.020834 86.1181879,109.125 85.7785818,109.125 L73.9985528,109.125 C73.6589467,109.125 73.3830208,109.020834 73.170767,108.8125 C72.9585132,108.604166 72.8523878,108.333335 72.8523878,108 C72.8523878,107.645832 72.9585132,107.364584 73.170767,107.15625 C73.3830208,106.947916 73.6589467,106.84375 73.9985528,106.84375 L85.9059334,106.84375 Z M72.8523878,102.28125 C72.8523878,101.927082 72.974432,101.645834 73.2185239,101.4375 C73.4626158,101.229166 73.7226228,101.125 73.9985528,101.125 L85.7785818,101.125 C86.1181879,101.125 86.3941137,101.229166 86.6063676,101.4375 C86.8186214,101.645834 86.9247467,101.927082 86.9247467,102.28125 C86.9247467,102.614585 86.8186214,102.885416 86.6063676,103.09375 C86.3941137,103.302084 86.1181879,103.40625 85.7785818,103.40625 L73.9985528,103.40625 C73.6589467,103.40625 73.3830208,103.302084 73.170767,103.09375 C72.9585132,102.885416 72.8523878,102.614585 72.8523878,102.28125 Z M73.9985528,97.6875 C73.7226228,97.6875 73.4626158,97.5833344 73.2185239,97.375 C72.974432,97.1666656 72.8523878,96.895835 72.8523878,96.5625 C72.8523878,96.2083316 72.9585132,95.9270844 73.170767,95.71875 C73.3830208,95.5104156 73.6589467,95.40625 73.9985528,95.40625 L78.4240232,95.40625 C78.7848547,95.40625 79.0713931,95.5104156 79.2836469,95.71875 C79.4959007,95.9270844 79.602026,96.2083316 79.602026,96.5625 C79.602026,96.895835 79.4959007,97.1666656 79.2836469,97.375 C79.0713931,97.5833344 78.7848547,97.6875 78.4240232,97.6875 L73.9985528,97.6875 Z" id="" fill="#FF7852"></path>
        <path d="M55.3879909,107.099338 C56.134261,107.428994 56.8183317,107.86166 57.4402234,108.397351 C58.0413854,108.933042 58.5699855,109.540835 59.0260395,110.220751 C59.4820934,110.900666 59.8344934,111.632078 60.0832501,112.415011 C60.3527366,113.218547 60.4978425,114.042674 60.5185722,114.887417 C60.5185722,115.217073 60.4149251,115.484914 60.2076279,115.690949 C60.0003306,115.896984 59.7204835,116 59.3680782,116 C59.0364026,116 58.7669202,115.896984 58.559623,115.690949 C58.3523257,115.484914 58.2486787,115.217073 58.2486787,114.887417 C58.2486787,114.042674 58.0828433,113.23915 57.7511677,112.476821 C57.4402219,111.735096 57.0049042,111.080945 56.4452016,110.514349 C55.885499,109.947753 55.2221578,109.499634 54.455158,109.169978 C53.6881581,108.840322 52.8693463,108.675497 51.9986979,108.675497 C51.1073197,108.675497 50.2781431,108.830021 49.5111433,109.139073 C48.7234138,109.468729 48.0445255,109.911697 47.474458,110.467991 C46.9043906,111.024285 46.4535258,111.683587 46.1218502,112.445916 C45.7901746,113.187642 45.6243393,114.001467 45.6243393,114.887417 C45.6243393,115.217073 45.5206923,115.484914 45.313395,115.690949 C45.1060978,115.896984 44.8262507,116 44.4738453,116 C44.1421698,116 43.8726874,115.896984 43.6653901,115.690949 C43.4580929,115.484914 43.3544458,115.217073 43.3544458,114.887417 C43.3544458,114.001467 43.4684576,113.167038 43.6964846,112.384106 C43.9452413,111.58057 44.2924589,110.844006 44.738148,110.174393 C45.1838371,109.50478 45.7072548,108.912438 46.3084168,108.397351 C46.9303086,107.86166 47.6143792,107.428994 48.3606493,107.099338 C47.9045954,106.646061 47.5418306,106.115529 47.2723442,105.507726 C47.0028578,104.899923 46.8681166,104.256074 46.8681166,103.576159 C46.8681166,102.216329 47.3604402,101.047098 48.3451021,100.068433 C49.329764,99.089767 50.5061583,98.6004415 51.8743201,98.6004415 C53.242482,98.6004415 54.4188762,99.089767 55.4035381,100.068433 C56.3882001,101.047098 56.8805237,102.216329 56.8805237,103.576159 C56.8805237,104.256074 56.7457825,104.899923 56.476296,105.507726 C56.2068096,106.115529 55.8440449,106.646061 55.3879909,107.099338 Z M49.0447268,103.699779 C49.0447268,104.441505 49.3142092,105.080203 49.8531821,105.615894 C50.3921549,106.151585 51.024402,106.419426 51.7499424,106.419426 C52.4962125,106.419426 53.1388243,106.151585 53.6777972,105.615894 C54.21677,105.080203 54.4862524,104.441505 54.4862524,103.699779 C54.4862524,102.958054 54.21677,102.319355 53.6777972,101.783664 C53.1388243,101.247974 52.4962125,100.980132 51.7499424,100.980132 C51.024402,100.980132 50.3921549,101.247974 49.8531821,101.783664 C49.3142092,102.319355 49.0447268,102.958054 49.0447268,103.699779 Z M60.9849887,91.4922737 C61.2544751,91.4922737 61.503228,91.5952896 61.731255,91.8013245 C61.959282,92.0073594 62.0421997,92.2752007 61.9800105,92.6048565 L61.9800105,93.9646799 C61.9800105,94.5415776 61.8763634,95.0772602 61.6690662,95.5717439 C61.4617689,96.0662276 61.1922865,96.509196 60.8606109,96.9006623 L60.8606109,107.192053 C60.8606109,107.542312 60.7569639,107.820455 60.5496666,108.02649 C60.3423694,108.232525 60.0625223,108.335541 59.710117,108.335541 C59.4406305,108.335541 59.2022423,108.237676 58.994945,108.041943 C58.7876478,107.846209 58.6840007,107.604122 58.6840007,107.315673 L58.6840007,98.2604857 C58.5181629,98.3222961 58.3523276,98.3583517 58.1864898,98.3686534 C58.020652,98.3789552 57.844452,98.384106 57.6578844,98.384106 C56.9945333,98.384106 56.3622861,98.2450345 55.7611241,97.9668874 C55.1599621,97.6887403 54.6624562,97.3024307 54.2685914,96.807947 C53.8747266,97.2612238 53.3772207,97.6372318 52.7760587,97.9359823 C52.1748966,98.2347329 51.5322848,98.384106 50.8482039,98.384106 C50.164123,98.384106 49.5266935,98.2450345 48.9358963,97.9668874 C48.3450992,97.6887403 47.8424109,97.3024307 47.4278164,96.807947 C47.0339516,97.2612238 46.541628,97.6372318 45.9508309,97.9359823 C45.3600337,98.2347329 44.7226042,98.384106 44.0385233,98.384106 C43.3544424,98.384106 42.73256,98.2501853 42.1728574,97.98234 C41.6131548,97.7144946 41.1363783,97.353939 40.7425135,96.9006623 C40.327919,97.353939 39.8304131,97.7144946 39.2499808,97.98234 C38.6695485,98.2501853 38.0683955,98.384106 37.4465038,98.384106 C37.2599362,98.384106 37.0837362,98.3789552 36.9178984,98.3686534 C36.7520606,98.3583517 36.5862253,98.3222961 36.4203875,98.2604857 L36.4203875,111.735099 L40.8357968,111.735099 C41.1882021,111.735099 41.4680492,111.838115 41.6753465,112.04415 C41.8826437,112.250185 41.9862908,112.518026 41.9862908,112.847682 C41.9862908,113.197941 41.8826437,113.476084 41.6753465,113.682119 C41.4680492,113.888154 41.1882021,113.99117 40.8357968,113.99117 L35.2698935,113.99117 C35.1662449,113.99117 35.0574155,113.965416 34.943402,113.913907 C34.8293885,113.862399 34.7101944,113.80574 34.585816,113.743929 C34.4821674,113.702722 34.3785203,113.62546 34.2748717,113.512141 C34.1712231,113.398822 34.1193995,113.249449 34.1193995,113.064018 L34.1193995,96.9006623 C33.7877239,96.509196 33.5182416,96.0662276 33.3109443,95.5717439 C33.1036471,95.0772602 33,94.5415776 33,93.9646799 L33,92.6048565 C33,92.2752007 33.1036471,92.0073594 33.3109443,91.8013245 C33.5182416,91.5952896 33.7877239,91.4922737 34.1193995,91.4922737 L34.1193995,89.1125828 C34.1193995,88.782927 34.228229,88.5150857 34.4458911,88.3090508 C34.6635532,88.1030159 34.9382179,88 35.2698935,88 L59.8344947,88 C60.1661703,88 60.440835,88.1030159 60.6584971,88.3090508 C60.8761592,88.5150857 60.9849887,88.782927 60.9849887,89.1125828 L60.9849887,91.4922737 Z M39.5920196,93.9646799 L39.5920196,93.7483444 L35.2698935,93.7483444 L35.2698935,93.9646799 C35.2698935,94.603388 35.4720053,95.1236183 35.8762349,95.5253863 C36.2804646,95.9271543 36.8038823,96.1280353 37.4465038,96.1280353 C38.0683955,96.1280353 38.5814485,95.9117019 38.9856781,95.4790287 C39.3899078,95.0463555 39.5920196,94.5415776 39.5920196,93.9646799 Z M46.1840391,93.9646799 L46.0596614,93.9646799 L46.0596614,93.7483444 L41.7375353,93.7483444 L41.7375353,93.9646799 C41.7375353,94.603388 41.9500118,95.1236183 42.3749712,95.5253863 C42.7999306,95.9271543 43.3544424,96.1280353 44.0385233,96.1280353 C44.660415,96.1280353 45.173468,95.9117019 45.5776977,95.4790287 C45.9819273,95.0463555 46.1840391,94.5415776 46.1840391,93.9646799 Z M53.0248141,93.9646799 L53.0248141,93.7483444 L48.7026881,93.7483444 L48.7026881,93.9646799 C48.7026881,94.603388 48.9047999,95.1236183 49.3090295,95.5253863 C49.7132591,95.9271543 50.2263121,96.1280353 50.8482039,96.1280353 C51.4700956,96.1280353 51.988331,95.9117019 52.4029255,95.4790287 C52.81752,95.0463555 53.0248141,94.5415776 53.0248141,93.9646799 Z M58.6840007,91.4922737 L58.6840007,90.2560706 L36.4203875,90.2560706 L36.4203875,91.4922737 L58.6840007,91.4922737 Z M59.8344947,93.9646799 L59.8344947,93.7483444 L55.5123687,93.7483444 L55.5123687,93.9646799 C55.5123687,94.603388 55.7144804,95.1236183 56.1187101,95.5253863 C56.5229397,95.9271543 57.0359927,96.1280353 57.6578844,96.1280353 C58.3005059,96.1280353 58.8239236,95.9117019 59.2281533,95.4790287 C59.6323829,95.0463555 59.8344947,94.5415776 59.8344947,93.9646799 Z" id="" fill="#FF7852"></path>
        <path d="M20.2970822,101.811518 C21.400536,102.230369 22.4297034,102.795808 23.3846154,103.507853 C24.3183071,104.240841 25.124665,105.089 25.8037135,106.052356 C26.482762,107.015712 27.0238707,108.073293 27.4270557,109.225131 C27.8090205,110.376969 28,111.581146 28,112.837696 C28,113.193719 27.8939003,113.476439 27.6816976,113.685864 C27.469495,113.895289 27.1830257,114 26.8222812,114 C26.4827569,114 26.2068976,113.895289 25.994695,113.685864 C25.7824923,113.476439 25.6763926,113.193719 25.6763926,112.837696 C25.6763926,111.518318 25.4217532,110.282728 24.9124668,109.13089 C24.4031805,107.979052 23.7135322,106.968591 22.8435013,106.099476 C21.9734705,105.230362 20.944303,104.554976 19.7559682,104.073298 C18.5888536,103.570678 17.3368767,103.319372 16,103.319372 C14.6631233,103.319372 13.4111464,103.570678 12.2440318,104.073298 C11.055697,104.554976 10.0265295,105.230362 9.15649867,106.099476 C8.2864678,106.968591 7.59681952,107.979052 7.08753316,109.13089 C6.57824679,110.282728 6.32360743,111.518318 6.32360743,112.837696 C6.32360743,113.193719 6.21750769,113.476439 6.00530504,113.685864 C5.79310239,113.895289 5.51724308,114 5.17771883,114 C4.81697432,114 4.53050504,113.895289 4.31830239,113.685864 C4.10609973,113.476439 4,113.193719 4,112.837696 C4,111.581146 4.19097952,110.376969 4.5729443,109.225131 C4.95490907,108.094235 5.48010276,107.052361 6.14854111,106.099476 C6.81697947,105.146592 7.62864244,104.303669 8.58355438,103.570681 C9.51724605,102.837693 10.5570234,102.251311 11.7029178,101.811518 C10.9389882,101.183243 10.3395247,100.424088 9.90450928,99.5340314 C9.46949385,98.6439746 9.25198939,97.685869 9.25198939,96.6596859 C9.25198939,95.7382153 9.43235894,94.869114 9.79310345,94.052356 C10.1326277,93.2565405 10.6100765,92.5549769 11.2254642,91.947644 C11.8408519,91.3403111 12.5517201,90.8586405 13.3580902,90.5026178 C14.1856805,90.1675376 15.0663083,90 16,90 C16.9336917,90 17.8143195,90.1675376 18.6419098,90.5026178 C19.4482799,90.8586405 20.1591481,91.3403111 20.7745358,91.947644 C21.3899235,92.5549769 21.8673723,93.2565405 22.2068966,94.052356 C22.5676411,94.869114 22.7480106,95.7382153 22.7480106,96.6596859 C22.7480106,97.685869 22.5305062,98.6439746 22.0954907,99.5340314 C21.6604753,100.424088 21.0610118,101.183243 20.2970822,101.811518 Z M11.5755968,96.6596859 C11.5755968,97.8534091 12.0053007,98.8795769 12.8647215,99.7382199 C13.7241422,100.596863 14.7692246,101.026178 16,101.026178 C17.2307754,101.026178 18.2758578,100.596863 19.1352785,99.7382199 C19.9946993,98.8795769 20.4244032,97.8534091 20.4244032,96.6596859 C20.4244032,95.4450201 19.9946993,94.4136168 19.1352785,93.565445 C18.2758578,92.7172732 17.2307754,92.2931937 16,92.2931937 C14.7692246,92.2931937 13.7241422,92.7172732 12.8647215,93.565445 C12.0053007,94.4136168 11.5755968,95.4450201 11.5755968,96.6596859 Z M21.9522546,106.649215 C22.2281181,106.649215 22.4933674,106.753926 22.7480106,106.963351 C23.0026538,107.172776 23.1618034,107.455496 23.2254642,107.811518 L23.2254642,111.015707 C23.2254642,111.308902 23.1458894,111.586386 22.9867374,111.848168 C22.8275854,112.109949 22.6313009,112.324606 22.397878,112.492147 C22.397878,112.554974 22.376658,112.591623 22.3342175,112.602094 L22.270557,112.617801 L20.9973475,113.183246 C20.8912462,113.246074 20.7533165,113.303665 20.5835544,113.356021 C20.4137923,113.408377 20.2440327,113.434555 20.0742706,113.434555 C19.9045084,113.434555 19.7294439,113.424084 19.5490716,113.403141 C19.3686994,113.382199 19.1936348,113.308901 19.0238727,113.183246 L17.7506631,112.492147 L17.6233422,112.397906 C17.3262585,112.230366 17.119364,112.010473 17.0026525,111.73822 C16.8859411,111.465967 16.8275862,111.183248 16.8275862,110.890052 L16.8275862,107.811518 C16.8275862,107.455496 16.9336859,107.172776 17.1458886,106.963351 C17.3580912,106.753926 17.6339506,106.649215 17.9734748,106.649215 L21.9522546,106.649215 Z M20.7745358,110.670157 L20.7745358,108.816754 L19.1511936,108.816754 L19.1511936,110.544503 L19.9469496,111.015707 L20.7745358,110.670157 Z" id="" fill="#FF7852"></path>
        <path d="M90.429003,60.6698718 C90.5981882,60.8351148 90.735649,61.051993 90.8413897,61.3205128 C90.9471304,61.5890327 91,61.8575485 91,62.1260684 C91,62.4152436 90.9471304,62.694087 90.8413897,62.9626068 C90.735649,63.2311267 90.5981882,63.4480049 90.429003,63.6132479 L84.9728097,68.9423077 C84.8459208,69.0455846 84.70846,69.1282048 84.560423,69.1901709 C84.412386,69.2521371 84.2749251,69.2831197 84.1480363,69.2831197 C84.0422955,69.2831197 83.9101216,69.2521371 83.7515106,69.1901709 C83.5928995,69.1282048 83.4501517,69.0455846 83.3232628,68.9423077 C83.0906333,68.7150986 82.9743202,68.4465827 82.9743202,68.1367521 C82.9743202,67.8269215 83.0906333,67.5687332 83.3232628,67.3621795 L87.3836858,63.3963675 L72.1888218,63.3963675 C71.8504515,63.3963675 71.5755298,63.2879284 71.3640483,63.071047 C71.1525669,62.8541656 71.0468278,62.580486 71.0468278,62.25 C71.0468278,61.8988586 71.1525669,61.6200153 71.3640483,61.4134615 C71.5755298,61.2069078 71.8504515,61.1036325 72.1888218,61.1036325 L87.6374622,61.1036325 L83.3232628,56.9209402 C83.0906333,56.6937311 82.9743202,56.430379 82.9743202,56.1308761 C82.9743202,55.8313731 83.0906333,55.5680211 83.3232628,55.340812 C83.5558924,55.1136029 83.8308141,55 84.1480363,55 C84.4652584,55 84.7401801,55.1136029 84.9728097,55.340812 L90.429003,60.6698718 Z M88.68429,75.8514957 C89.0226603,75.8514957 89.3187298,75.954771 89.5725076,76.1613248 C89.8262853,76.3678785 89.9531722,76.6363944 89.9531722,76.9668803 C89.9531722,77.3180217 89.8474331,77.5968651 89.6359517,77.8034188 C89.4244702,78.0099725 89.1389746,78.1132479 88.7794562,78.1132479 L73.5845921,78.1132479 L77.6450151,82.0790598 C77.8776447,82.3062689 77.9939577,82.569621 77.9939577,82.8691239 C77.9939577,83.1686269 77.8776447,83.4319789 77.6450151,83.659188 C77.5392744,83.7831203 77.4071005,83.8709043 77.2484894,83.9225427 C77.0898784,83.9741812 76.9577045,84 76.8519637,84 C76.7250749,84 76.587614,83.9741812 76.439577,83.9225427 C76.29154,83.8709043 76.1540792,83.7831203 76.0271903,83.659188 L70.570997,78.3301282 C70.4018118,78.1648852 70.264351,77.948007 70.1586103,77.6794872 C70.0528696,77.4109673 70,77.1424515 70,76.8739316 C70,76.5847564 70.0528696,76.305913 70.1586103,76.0373932 C70.264351,75.7688733 70.4018118,75.5519951 70.570997,75.3867521 L76.0271903,70.0576923 C76.2598199,69.8304832 76.5294547,69.7168803 76.8361027,69.7168803 C77.1427508,69.7168803 77.4123855,69.8304832 77.6450151,70.0576923 C77.8776447,70.2849014 77.9939577,70.5534173 77.9939577,70.8632479 C77.9939577,71.1730785 77.8776447,71.4312668 77.6450151,71.6378205 L73.3625378,75.8514957 L88.68429,75.8514957 Z" id="" fill="#FF7852"></path>
        <path d="M56.2420749,54 C56.981752,54 57.6263181,54.2719271 58.1757925,54.8157895 C58.7252669,55.3596518 59,56.0080934 59,56.7611336 L59,82.2388664 C59,82.9919066 58.7252669,83.6403482 58.1757925,84.1842105 C57.6263181,84.7280729 56.981752,85 56.2420749,85 L39.7579251,85 C39.018248,85 38.3736819,84.7280729 37.8242075,84.1842105 C37.2747331,83.6403482 37,82.9919066 37,82.2388664 L37,56.7611336 C37,56.0080934 37.2747331,55.3596518 37.8242075,54.8157895 C38.3736819,54.2719271 39.018248,54 39.7579251,54 L56.2420749,54 Z M56.685879,82.2388664 L56.685879,56.7611336 C56.685879,56.6565447 56.638329,56.5519573 56.5432277,56.4473684 C56.4481263,56.3427795 56.3477431,56.2904858 56.2420749,56.2904858 L39.7579251,56.2904858 C39.6522569,56.2904858 39.5518737,56.3427795 39.4567723,56.4473684 C39.361671,56.5519573 39.314121,56.6565447 39.314121,56.7611336 L39.314121,82.2388664 C39.314121,82.3434553 39.361671,82.4480427 39.4567723,82.5526316 C39.5518737,82.6572205 39.6522569,82.7095142 39.7579251,82.7095142 L56.2420749,82.7095142 C56.3477431,82.7095142 56.4481263,82.6572205 56.5432277,82.5526316 C56.638329,82.4480427 56.685879,82.3434553 56.685879,82.2388664 Z M49.1729107,57.451417 C49.4476479,57.451417 49.706531,57.5560044 49.9495677,57.7651822 C50.1926045,57.97436 50.314121,58.2567459 50.314121,58.6123482 C50.314121,58.9470327 50.2084545,59.2189598 49.9971182,59.4281377 C49.7857818,59.6373155 49.5110488,59.7419028 49.1729107,59.7419028 L46.8270893,59.7419028 C46.4889512,59.7419028 46.2142182,59.6373155 46.0028818,59.4281377 C45.7915455,59.2189598 45.685879,58.9470327 45.685879,58.6123482 C45.685879,58.2567459 45.7915455,57.97436 46.0028818,57.7651822 C46.2142182,57.5560044 46.4889512,57.451417 46.8270893,57.451417 L49.1729107,57.451417 Z M49.7435159,79.8228745 C49.7435159,80.3039835 49.5744493,80.7118742 49.2363112,81.0465587 C48.8981731,81.3812432 48.4860735,81.548583 48,81.548583 C47.5139265,81.548583 47.1018269,81.3812432 46.7636888,81.0465587 C46.4255507,80.7118742 46.2564841,80.3039835 46.2564841,79.8228745 C46.2564841,79.3417655 46.4255507,78.9338748 46.7636888,78.5991903 C47.1018269,78.2645057 47.5139265,78.097166 48,78.097166 C48.4860735,78.097166 48.8981731,78.2645057 49.2363112,78.5991903 C49.5744493,78.9338748 49.7435159,79.3417655 49.7435159,79.8228745 Z" id="" fill="#FF7852"></path>
        <path d="M16,55 C18.0668162,55 20.0083416,55.3966557 21.8246347,56.1899791 C23.6409277,56.9833025 25.2275506,58.0584483 26.5845511,59.4154489 C27.9415517,60.7724494 29.0166975,62.3590723 29.8100209,64.1753653 C30.6033443,65.9916584 31,67.9331838 31,70 C31,72.0668162 30.6033443,74.0083416 29.8100209,75.8246347 C29.0166975,77.6409277 27.9415517,79.2275506 26.5845511,80.5845511 C25.2275506,81.9415517 23.6409277,83.0166975 21.8246347,83.8100209 C20.0083416,84.6033443 18.0668162,85 16,85 C13.9331838,85 11.9916584,84.6033443 10.1753653,83.8100209 C8.35907234,83.0166975 6.77244937,81.9415517 5.41544885,80.5845511 C4.05844833,79.2275506 2.98330251,77.6409277 2.18997912,75.8246347 C1.39665574,74.0083416 1,72.0668162 1,70 C1,67.9331838 1.39665574,65.9916584 2.18997912,64.1753653 C2.98330251,62.3590723 4.05844833,60.7724494 5.41544885,59.4154489 C6.77244937,58.0584483 8.35907234,56.9833025 10.1753653,56.1899791 C11.9916584,55.3966557 13.9331838,55 16,55 Z M16,82.7139875 C17.7536622,82.7139875 19.402915,82.3799616 20.9478079,81.7118998 C22.4718239,81.043838 23.8131466,80.130486 24.9718163,78.9718163 C26.130486,77.8131466 27.043838,76.4718239 27.7118998,74.9478079 C28.3799616,73.402915 28.7139875,71.7536622 28.7139875,70 C28.7139875,68.2463378 28.3799616,66.597085 27.7118998,65.0521921 C27.043838,63.5281761 26.130486,62.1868534 24.9718163,61.0281837 C23.8131466,59.869514 22.4718239,58.956162 20.9478079,58.2881002 C19.402915,57.6200384 17.7536622,57.2860125 16,57.2860125 C14.2463378,57.2860125 12.597085,57.6200384 11.0521921,58.2881002 C9.5281761,58.956162 8.18685339,59.869514 7.02818372,61.0281837 C5.86951404,62.1868534 4.956162,63.5281761 4.28810021,65.0521921 C3.62003841,66.597085 3.28601253,68.2463378 3.28601253,70 C3.28601253,71.7536622 3.62003841,73.402915 4.28810021,74.9478079 C4.956162,76.4718239 5.86951404,77.8131466 7.02818372,78.9718163 C8.18685339,80.130486 9.5281761,81.043838 11.0521921,81.7118998 C12.597085,82.3799616 14.2463378,82.7139875 16,82.7139875 Z M16.125261,68.4968685 C17.2108614,68.7891455 18.3225413,69.2484311 19.460334,69.874739 C20.5981268,70.501047 21.1983295,71.6075077 21.2609603,73.1941545 C21.2609603,74.238001 20.8329897,75.1513531 19.9770355,75.934238 C19.1210813,76.7171229 18.0668121,77.2233809 16.8141962,77.4530271 L16.8141962,78.7056367 C16.8141962,79.0396676 16.704594,79.3162828 16.4853862,79.5354906 C16.2661784,79.7546984 15.9895633,79.8643006 15.6555324,79.8643006 C15.3215015,79.8643006 15.0448863,79.7546984 14.8256785,79.5354906 C14.6064707,79.3162828 14.4968685,79.0396676 14.4968685,78.7056367 L14.4968685,77.4530271 C13.0146064,77.2651348 11.8246391,76.7640959 10.9269311,75.9498956 C10.0292231,75.1356953 9.58037578,74.0709878 9.58037578,72.7557411 C9.58037578,72.4008333 9.68475887,72.118999 9.89352818,71.9102296 C10.1022975,71.7014603 10.3841318,71.5970772 10.7390397,71.5970772 C11.0730706,71.5970772 11.3444666,71.7014603 11.5532359,71.9102296 C11.7620052,72.118999 11.8663883,72.4008333 11.8663883,72.7557411 C11.8663883,73.9039723 12.3569888,74.6085582 13.3382046,74.8695198 C14.3194204,75.1304815 15.0918552,75.2609603 15.6555324,75.2609603 C16.5741173,75.2609603 17.3569905,75.0313175 18.0041754,74.5720251 C18.6513602,74.1127326 18.9749478,73.653447 18.9749478,73.1941545 C18.9749478,72.5052158 18.7087709,71.9989578 18.1764092,71.6753653 C17.6440474,71.3517729 16.8037636,71.0229662 15.6555324,70.6889353 C14.6325627,70.3966582 13.5730744,69.9686876 12.4770355,69.4050104 C11.3809966,68.8413333 10.8329854,67.818379 10.8329854,66.3361169 C10.8329854,65.3131473 11.1617921,64.4519868 11.8194154,63.7526096 C12.4770388,63.0532324 13.3695142,62.6200426 14.4968685,62.4530271 L14.4968685,60.8246347 C14.4968685,60.4906038 14.6064707,60.2192077 14.8256785,60.0104384 C15.0448863,59.8016691 15.3215015,59.697286 15.6555324,59.697286 C15.9895633,59.697286 16.2661784,59.8016691 16.4853862,60.0104384 C16.704594,60.2192077 16.8141962,60.4906038 16.8141962,60.8246347 L16.8141962,62.4530271 C17.7119043,62.6200426 18.4008327,62.9436302 18.8810021,63.4237996 C19.3611715,63.903969 19.6638825,64.342378 19.7891441,64.7390397 C19.8935287,65.0104398 19.8726521,65.2974933 19.7265136,65.6002088 C19.5803751,65.9029243 19.3716089,66.1064713 19.1002088,66.2108559 C18.8079317,66.3361175 18.5156591,66.3256792 18.223382,66.1795407 C17.931105,66.0334022 17.7223388,65.8141977 17.5970772,65.5219207 C17.5344465,65.4801668 17.383091,65.318373 17.1430063,65.0365344 C16.9029216,64.7546959 16.4071019,64.6137787 15.6555324,64.6137787 C15.0918552,64.6137787 14.5125291,64.7286001 13.9175365,64.9582463 C13.322544,65.1878926 13.0250522,65.6471782 13.0250522,66.3361169 C13.0250522,66.8997941 13.2703525,67.3329839 13.7609603,67.6356994 C14.2515682,67.9384149 15.0396605,68.2254684 16.125261,68.4968685 Z" id="" fill="#FF7852"></path>
        <polygon id="▶" fill="#333333" points="118.52 29.26 110 33.52 110 25"></polygon>
        <path d="M113,50 C113,48.8954305 113.699555,48 114.5625,48 L123,48" id="Shape" stroke="#FFFFFF" stroke-width="2" stroke-linecap="round" stroke-linejoin="round"></path>
        <path d="M114.71875,39 L124,39 L124,52 L114.71875,52 C113.769511,52 113,51.2724627 113,50.375 L113,40.625 C113,39.7275373 113.769511,39 114.71875,39 Z" id="Shape" stroke="#FFFFFF" stroke-width="2" stroke-linecap="round" stroke-linejoin="round"></path>
    </g>
</svg>